<svg xmlns="http://www.w3.org/2000/svg" style="display:none">

    <symbol id="dashboard" viewBox="0 0 32 31">
        <path
            d="M27 4.496L5 4.5C4.447 4.5 4 4.943 4 5.496V19.496C4 20.049 4.447 20.496 5 20.496H27C27.553 20.496 28 20.049 28 19.496V5.496C28 4.943 27.553 4.496 27 4.496ZM27 19.5H5V5.496H27V19.5ZM29 0.5H3C1.343 0.5 0 1.842 0 3.5V23.5C0 25.154 1.338 26.494 2.99 26.498H13V27.715L6.758 28.526C6.312 28.637 6 29.037 6 29.496C6 30.049 6.447 30.496 7 30.496H25C25.553 30.496 26 30.049 26 29.496C26 29.037 25.688 28.637 25.242 28.525L19 27.715V26.498H29.01C30.662 26.494 32 25.154 32 23.5V3.5C32 1.842 30.656 0.5 29 0.5ZM30 23.5C30 24.051 29.551 24.5 29 24.5H3C2.448 24.5 2 24.051 2 23.5V3.5C2 2.948 2.448 2.5 3 2.5H29C29.551 2.5 30 2.948 30 3.5V23.5Z"
            fill="#BDBDBD" />
    </symbol>

    <symbol id="email" viewBox="0 0 26 18">
        <path
            d="M22.75 0.0625H3.25C1.45519 0.0625 0 1.5185 0 3.3125V13.875C0 15.6698 1.45519 17.125 3.25 17.125H22.75C24.5448 17.125 26 15.6698 26 13.875V3.3125C26 1.5185 24.5448 0.0625 22.75 0.0625ZM1.625 4.32812L7.31169 8.59375L1.625 12.8594V4.32812ZM24.375 13.875C24.375 14.772 23.6454 15.5 22.75 15.5H3.25C2.35381 15.5 1.625 14.772 1.625 13.875L7.9885 9.10156L11.5375 11.7641C11.9706 12.0875 12.4849 12.2516 13 12.2516C13.5143 12.2516 14.0286 12.0883 14.4617 11.7641L18.0115 9.10156L24.375 13.875ZM24.375 12.8594L18.6875 8.59375L24.375 4.32812V12.8594ZM13.9742 11.1141C13.6906 11.327 13.3542 11.4391 13 11.4391C12.6458 11.4391 12.3086 11.3262 12.025 11.1141L1.625 3.3125C1.625 2.41631 2.35381 1.6875 3.25 1.6875H22.75C23.6454 1.6875 24.375 2.41631 24.375 3.3125L13.9742 11.1141Z"
            fill="#BDBDBD" />
    </symbol>

    <symbol id="calendar" viewBox="0 0 26 26">
        <path
            d="M23.8339 2.4375H20.3125V0.8125C20.3125 0.363188 19.9493 0 19.5 0C19.0507 0 18.6875 0.363188 18.6875 0.8125V2.4375H13.8125V0.8125C13.8125 0.363188 13.4485 0 13 0C12.5515 0 12.1875 0.363188 12.1875 0.8125V2.4375H7.3125V0.8125C7.3125 0.363188 6.9485 0 6.5 0C6.0515 0 5.6875 0.363188 5.6875 0.8125V2.4375H2.16694C0.970125 2.4375 0 3.40681 0 4.60362V23.8331C0 25.0299 0.970125 26 2.16694 26H23.8339C25.0307 26 26 25.0299 26 23.8331V4.60362C26 3.40681 25.0307 2.4375 23.8339 2.4375ZM24.375 23.8331C24.375 24.1321 24.1321 24.375 23.8339 24.375H2.16694C1.86794 24.375 1.625 24.1321 1.625 23.8331V4.60362C1.625 4.30544 1.86794 4.0625 2.16694 4.0625H5.6875V5.6875C5.6875 6.13681 6.0515 6.5 6.5 6.5C6.9485 6.5 7.3125 6.13681 7.3125 5.6875V4.0625H12.1875V5.6875C12.1875 6.13681 12.5515 6.5 13 6.5C13.4485 6.5 13.8125 6.13681 13.8125 5.6875V4.0625H18.6875V5.6875C18.6875 6.13681 19.0507 6.5 19.5 6.5C19.9493 6.5 20.3125 6.13681 20.3125 5.6875V4.0625H23.8339C24.1321 4.0625 24.375 4.30544 24.375 4.60362V23.8331ZM5.6875 9.75H8.9375V12.1875H5.6875V9.75ZM5.6875 13.8125H8.9375V16.25H5.6875V13.8125ZM5.6875 17.875H8.9375V20.3125H5.6875V17.875ZM11.375 17.875H14.625V20.3125H11.375V17.875ZM11.375 13.8125H14.625V16.25H11.375V13.8125ZM11.375 9.75H14.625V12.1875H11.375V9.75ZM17.0625 17.875H20.3125V20.3125H17.0625V17.875ZM17.0625 13.8125H20.3125V16.25H17.0625V13.8125ZM17.0625 9.75H20.3125V12.1875H17.0625V9.75Z"
            fill="#BDBDBD" />
    </symbol>
    <symbol id="news" viewBox="0 0 32 32">
        <path
            d="M29 0H7C5.343 0 4 1.342 4 3V5H3C1.343 5 0 6.342 0 8V28C0 30.209 1.791 32 4 32H28C30.209 32 32 30.209 32 28V3C32 1.342 30.656 0 29 0ZM30 28C30 29.102 29.102 30 28 30H4C2.897 30 2 29.102 2 28V8C2 7.448 2.448 7 3 7H4V27C4 27.553 4.447 28 5 28C5.553 28 6 27.553 6 27V3C6 2.448 6.448 2 7 2H29C29.551 2 30 2.448 30 3V28ZM19.498 13.005C19.223 13.005 18.998 12.781 18.998 12.505C18.998 12.229 19.223 12.005 19.498 12.005H27.498C27.775 12.005 27.998 12.229 27.998 12.505C27.998 12.781 27.775 13.005 27.498 13.005H19.498ZM19.498 10.005C19.223 10.005 18.998 9.781 18.998 9.505C18.998 9.229 19.223 9.005 19.498 9.005H27.498C27.775 9.005 27.998 9.229 27.998 9.505C27.998 9.781 27.775 10.005 27.498 10.005H19.498ZM19.498 7.005C19.223 7.005 18.998 6.781 18.998 6.505C18.998 6.229 19.223 6.005 19.498 6.005H27.498C27.775 6.005 27.998 6.229 27.998 6.505C27.998 6.781 27.775 7.005 27.498 7.005H19.498ZM16.5 27.004C16.776 27.004 17 27.229 17 27.504C17 27.781 16.775 28.004 16.5 28.004H8.5C8.224 28.004 8 27.781 8 27.504C8 27.229 8.224 27.004 8.5 27.004H16.5ZM16.5 24.004C16.776 24.004 17 24.229 17 24.504C17 24.781 16.775 25.004 16.5 25.004H8.5C8.224 25.004 8 24.781 8 24.504C8 24.229 8.224 24.004 8.5 24.004H16.5ZM16.5 21.004C16.776 21.004 17 21.229 17 21.504C17 21.781 16.775 22.004 16.5 22.004H8.5C8.224 22.004 8 21.781 8 21.504C8 21.229 8.224 21.004 8.5 21.004H16.5ZM27.5 27.004C27.775 27.004 28 27.229 28 27.504C28 27.781 27.775 28.004 27.5 28.004H19.5C19.223 28.004 19 27.781 19 27.504C19 27.229 19.223 27.004 19.5 27.004H27.5ZM27.5 24.004C27.775 24.004 28 24.229 28 24.504C28 24.781 27.775 25.004 27.5 25.004H19.5C19.223 25.004 19 24.781 19 24.504C19 24.229 19.223 24.004 19.5 24.004H27.5ZM27.5 21.004C27.775 21.004 28 21.229 28 21.504C28 21.781 27.775 22.004 27.5 22.004H19.5C19.223 22.004 19 21.781 19 21.504C19 21.229 19.223 21.004 19.5 21.004H27.5ZM27.5 15.004C27.775 15.004 28 15.228 28 15.504C28 15.78 27.775 16.004 27.5 16.004H8.5C8.224 16.004 8 15.78 8 15.504C8 15.228 8.224 15.004 8.5 15.004H27.5ZM27.5 18.004C27.775 18.004 28 18.229 28 18.504C28 18.781 27.775 19.004 27.5 19.004H8.5C8.224 19.004 8 18.781 8 18.504C8 18.229 8.224 18.004 8.5 18.004H27.5ZM9 13H16C16.553 13 17 12.553 17 12V5.004C17 4.451 16.553 4.004 16 4.004H9C8.447 4.004 8 4.451 8 5.004V12C8 12.552 8.447 13 9 13ZM10 6H15V11H10V6Z"
            fill="#BDBDBD" />
    </symbol>

    <symbol id="study" viewBox="0 0 32 32">
        <g clip-path="url(#clip0_16_499)">
            <path
                d="M32 8C32 6.594 31.043 5.392 29.674 5.076L16.661 2.073C16.443 2.024 16.221 2 16 2C15.779 2 15.557 2.024 15.325 2.076L2.326 5.076C0.956 5.392 0 6.594 0 8C0 9.406 0.957 10.608 2.325 10.924L5 11.541V20C5 22.654 8.038 25 16 25C23.962 25 27 22.654 27 20V11.541L29.674 10.924C31.043 10.608 32 9.406 32 8ZM25 20C25 21.105 22 23 16 23C10 23 7 21.105 7 20V12.003L15.338 13.927C15.556 13.976 15.779 14 16 14C16.221 14 16.444 13.976 16.674 13.924L25 12.003V20ZM16.225 11.975C16.15 11.991 16.075 12 16 12C15.925 12 15.849 11.991 15.775 11.975L2.775 8.975C2.321 8.87 2 8.466 2 8C2 7.534 2.321 7.13 2.775 7.025L15.775 4.025C15.849 4.009 15.924 4 16 4C16.076 4 16.151 4.009 16.225 4.025L29.225 7.025C29.678 7.13 30 7.534 30 8C30 8.466 29.678 8.87 29.225 8.975L16.225 11.975ZM29 13C29 12.447 29.447 12 30 12C30.552 12 31 12.447 31 13V22C31 22.553 30.552 23 30 23C29.447 23 29 22.553 29 22V13ZM30 24C31.104 24 32 26.896 32 28C32 29.104 31.104 30 30 30C28.895 30 28 29.104 28 28C28 26.896 28.895 24 30 24Z"
                fill="#BDBDBD" />
        </g>
        <defs>
            <clipPath id="clip0_16_499">
                <rect width="32" height="32" fill="#BDBDBD" />
            </clipPath>
        </defs>
    </symbol>

    <symbol id="files" viewBox="0 0 32 32">
        <path
            d="M31.924 16.455L27.922 1.449C27.68 0.596 26.889 0 26 0H6C5.11 0 4.32 0.596 4.078 1.449L0.076 16.455C0.025 16.637 0 16.82 0 17V24C0 26.209 1.791 28 4 28H28C30.209 28 32 26.209 32 24V17C32 16.82 31.975 16.637 31.924 16.455ZM30 24C30 25.102 29.102 26 28 26H4C2.897 26 2 25.102 2 24V17L6.001 1.999H25.998L30 17V24ZM23.742 4H8.258C7.805 4 7.408 4.305 7.291 4.743L3.846 16.743C3.767 17.044 3.83 17.364 4.02 17.61C4.21 17.856 4.502 18 4.812 18H9.38L10.827 20.895C11.167 21.572 11.859 22 12.617 22H19.383C20.141 22 20.832 21.572 21.172 20.895L22.619 18H27.187C27.498 18 27.791 17.855 27.98 17.609C28.169 17.363 28.232 17.043 28.154 16.742L24.709 4.742C24.592 4.304 24.195 4 23.742 4ZM24.281 16H22.619C21.857 16 21.172 16.422 20.83 17.105L19.383 20H12.617L11.17 17.105C10.828 16.422 10.143 16 9.381 16H5.334L8.258 5H23.742L26.666 16H24.281Z"
            fill="#BDBDBD" />
    </symbol>

    <symbol id="location" viewBox="0 0 32 32">
        <path
            d="M16.002 17.746C19.311 17.746 22.002 15.054 22.002 11.746C22.002 8.438 19.311 5.746 16.002 5.746C12.693 5.746 10.002 8.437 10.002 11.746C10.002 15.055 12.693 17.746 16.002 17.746ZM16.002 6.746C18.76 6.746 21.002 8.988 21.002 11.746C21.002 14.504 18.76 16.746 16.002 16.746C13.244 16.746 11.002 14.504 11.002 11.746C11.002 8.988 13.244 6.746 16.002 6.746ZM16 0C9.382 0 4 5.316 4 12.001C4 19.001 10.001 26.162 14.376 31.195C14.392 31.215 15.094 32 15.962 32C15.964 32 16.035 32 16.039 32C16.906 32 17.609 31.215 17.625 31.195C22.002 26.162 28.002 19.002 28.002 12.001C28.002 5.316 22.619 0 16 0V0ZM16.117 29.883C16.096 29.903 16.035 29.947 15.982 29.981C15.972 29.954 15.898 29.895 15.853 29.848C12.188 25.631 6 18.514 6 12.001C6 6.487 10.487 2 16 2C21.516 2 26.002 6.487 26.002 12.002C26.002 18.514 19.814 25.631 16.117 29.883Z"
            fill="#BDBDBD" />
    </symbol>

    <symbol id="logo" viewBox="0 0 32 32">
        <path
            d="M15.962 31.9903C24.5889 31.9903 31.5824 24.8312 31.5824 16C31.5824 7.1688 24.5889 0.00970459 15.962 0.00970459C7.33514 0.00970459 0.341675 7.1688 0.341675 16C0.341675 24.8312 7.33514 31.9903 15.962 31.9903Z"
            fill="#9E8CFC" />
        <path
            d="M11.0497 30.179C11.6887 30.3997 13.8346 31.1058 13.9259 30.4154C13.9754 30.0365 12.8429 29.6483 11.3096 28.8264C9.12893 27.6602 7.13397 26.1688 5.39166 24.4022C2.84854 21.879 1.38622 18.4464 1.31948 14.8431C1.18952 10.0056 3.05851 6.09492 6.13276 3.57129C2.37333 6.50737 0.122496 11.002 0.00592228 15.8059C-0.0853614 19.3048 0.881627 22.2527 2.69802 24.936C3.26205 25.6732 3.92137 26.3303 4.6583 26.8898C6.39888 28.2221 8.94399 29.4542 11.0497 30.1774"
            fill="white" />
        <path
            d="M31.7974 12.3351C30.8288 7.72621 27.818 4.49966 23.7907 2.22025C26.8773 4.43861 31.2095 9.15554 28.6489 13.3167C26.4828 16.6497 21.2224 15.9969 18.3369 14.4126C14.9145 12.5339 10.6319 8.30702 14.8557 4.1756C17.5943 1.50168 26.3049 4.49966 24.7716 8.49645C23.8774 10.8213 20.3962 10.3046 18.8305 9.16806C17.6763 8.32894 16.7046 6.88709 17.2198 5.39827C17.3838 4.92079 17.3606 4.18029 16.6938 4.7251C16.2018 5.13213 15.9465 5.80218 15.8599 6.42839C15.1311 11.64 24.3075 15.6807 27.0305 10.6381C28.4431 8.02053 26.1533 4.21943 23.2709 2.6633C21.1048 1.48915 18.8506 0.664118 16.0873 0.864506C11.6686 1.17761 7.96151 3.97991 7.49581 8.54812C7.03165 13.0881 10.0316 17.1742 13.5639 19.618C17.2771 22.1854 22.2683 23.8778 26.8356 22.3467C30.9294 20.9737 32.6205 16.2192 31.7974 12.3383"
            fill="white" />
    </symbol>

    <symbol id="profile" viewBox="0 0 26 26">
        <g clip-path="url(#clip0_16_145)">
            <path
                d="M25.277 23.023C25.1137 22.9149 22.1505 20.9714 17.7427 20.0176C19.3596 17.9692 20.398 15.2141 20.8392 13.3802C21.4518 10.8387 21.2137 5.86625 18.773 2.76737C17.3462 0.956312 15.3499 0 13.0002 0C10.6504 0 8.6541 0.957125 7.22816 2.76737C4.78742 5.86544 4.55016 10.8379 5.16198 13.3794C5.60316 15.2132 6.64073 17.9684 8.25841 20.0168C3.8506 20.9706 0.887415 22.9141 0.724915 23.0222C0.129352 23.4187 -0.137148 24.1597 0.0708522 24.8438C0.277227 25.5304 0.910165 26 1.62516 26H24.3752C25.091 26 25.7223 25.5304 25.9303 24.8446C26.1391 24.1605 25.8726 23.4195 25.277 23.023ZM16.4671 19.0109L16.2022 19.3472C14.2644 21.5735 11.7375 21.5735 9.80054 19.3472L9.53485 19.0109C7.27204 16.1436 6.14917 12.3508 6.6326 8.73275C7.07542 5.25606 9.06767 1.625 13.0002 1.625C16.9327 1.625 18.9257 5.25688 19.3685 8.73356C19.8504 12.3532 18.7315 16.1419 16.4671 19.0109ZM1.62516 24.375C1.73729 24.3002 4.49004 22.4949 8.60129 21.606L10.6195 21.1697C11.3402 21.6426 12.1308 21.9375 13.0002 21.9375C13.8704 21.9375 14.6601 21.6426 15.3808 21.1697L17.399 21.606C21.4778 22.4884 24.2208 24.2734 24.3752 24.375H1.62516Z"
                fill="#BDBDBD" />
        </g>
        <defs>
            <clipPath id="clip0_16_145">
                <rect width="26" height="26" fill="#BDBDBD" />
            </clipPath>
        </defs>
    </symbol>

    <symbol id="permissions" viewBox="0 0 20 26">
        <path
            d="M17.3125 10.5625V7.3125C17.3125 3.27356 14.0389 0 10 0C5.96106 0 2.6875 3.27356 2.6875 7.3125V10.5625C1.34119 10.5625 0.25 11.6537 0.25 13V18.6875C0.25 22.7264 3.52356 26 7.5625 26H12.4375C16.4764 26 19.75 22.7264 19.75 18.6875V13C19.75 11.6529 18.658 10.5625 17.3125 10.5625ZM4.3125 7.3125C4.3125 4.17138 6.85888 1.625 10 1.625C13.1411 1.625 15.6875 4.17138 15.6875 7.3125V10.5625H14.0625V7.31413C14.0625 5.07 12.2441 3.25162 10 3.25162C7.75588 3.25162 5.9375 5.07 5.9375 7.31413V10.5625H4.3125V7.3125ZM13.25 7.3125V10.5625H6.75V7.3125C6.75 5.51769 8.20519 4.0625 10 4.0625C11.7948 4.0625 13.25 5.51769 13.25 7.3125ZM18.125 15.4375V18.6875C18.125 21.8229 15.5729 24.375 12.4375 24.375H7.5625C4.42706 24.375 1.875 21.8229 1.875 18.6875V13C1.875 12.5515 2.239 12.1875 2.6875 12.1875C3.22944 12.1875 3.77056 12.1875 4.3125 12.1875H15.6875C16.2286 12.1875 16.7698 12.1875 17.3125 12.1875C17.7602 12.1875 18.125 12.5515 18.125 13V15.4375ZM10 15.4375C10.897 15.4375 11.625 16.1647 11.625 17.0625C11.625 17.5573 11.3585 18.499 11.0839 19.2416C10.8621 19.8412 10.6354 20.3109 10 20.3109C9.41581 20.3109 9.13794 19.8364 8.91694 19.2335C8.64556 18.4925 8.375 17.5557 8.375 17.0625C8.375 16.1647 9.103 15.4375 10 15.4375Z"
            fill="#BDBDBD" />
    </symbol>

    <symbol id="log" viewBox="0 0 26 26">
            <path
                d="M17.8783 0C13.3908 0 9.75325 3.63838 9.75325 8.125C9.75325 9.16906 9.97181 10.1571 10.3326 11.0736L0.4615 20.9438C0.176313 21.2298 0 21.5012 0 21.9375V24.375C0 25.2444 0.754813 26 1.625 26H4.0625C4.498 26 4.77344 25.8253 5.05862 25.5417L6.22456 24.375H8.12825C9.02525 24.375 9.75325 23.647 9.75325 22.75V21.125H11.3783C12.2752 21.125 13.0033 20.397 13.0033 19.5V17.5955L14.9281 15.6691C15.8454 16.0306 16.8326 16.25 17.8783 16.25C22.3641 16.25 26.0033 12.6116 26.0033 8.125C26.0033 3.63838 22.3641 0 17.8783 0ZM17.8783 14.625C16.6757 14.625 15.561 14.2756 14.5949 13.7052L14.3154 13.9839L11.8536 16.4466C11.5489 16.7513 11.3774 17.1641 11.3774 17.5955V19.5H9.75244C8.85544 19.5 8.12744 20.2272 8.12744 21.125V22.75H6.22456C5.79394 22.75 5.38038 22.9214 5.07569 23.2261L3.92356 24.3783L1.62744 24.375L1.625 22.0594L11.1028 12.5986C11.1028 12.5986 11.1028 12.5994 11.1036 12.6003L12.2972 11.4067C11.7268 10.4406 11.3774 9.32669 11.3774 8.12419C11.3774 4.53456 14.2886 1.62419 17.8774 1.62419C21.4662 1.62419 24.3774 4.53456 24.3774 8.12419C24.3774 11.7138 21.4679 14.625 17.8783 14.625ZM22.6038 6.69419C21.6929 5.42506 20.5839 4.31763 19.3091 3.40031C19.1019 3.25 18.8337 3.21263 18.5924 3.29713C17.4639 3.69444 16.6912 4.46631 16.2963 5.59488C16.2662 5.67938 16.2516 5.76713 16.2516 5.85406C16.2516 6.01575 16.302 6.17581 16.3995 6.3115C17.3136 7.58225 18.421 8.6905 19.6926 9.60456C19.9006 9.75406 20.1671 9.79225 20.4084 9.70856C21.5386 9.31369 22.3113 8.54019 22.7078 7.41081C22.7378 7.32631 22.7524 7.23856 22.7524 7.15163C22.7516 6.98994 22.7004 6.82988 22.6038 6.69419ZM20.1663 8.94563C18.9654 8.08194 17.9197 7.03625 17.0625 5.86381C17.3769 4.96763 17.9652 4.37937 18.8354 4.05925C20.0371 4.92456 21.0811 5.96781 21.9359 7.15569C21.6182 8.04537 21.0316 8.63037 20.1663 8.94563Z"
                fill="#BDBDBD" />
    </symbol>
</svg>