<svg xmlns="http://www.w3.org/2000/svg" style="display:none">

    <symbol id="dashboard" viewBox="0 0 32 31">
        <path
            d="M27 4.496L5 4.5C4.447 4.5 4 4.943 4 5.496V19.496C4 20.049 4.447 20.496 5 20.496H27C27.553 20.496 28 20.049 28 19.496V5.496C28 4.943 27.553 4.496 27 4.496ZM27 19.5H5V5.496H27V19.5ZM29 0.5H3C1.343 0.5 0 1.842 0 3.5V23.5C0 25.154 1.338 26.494 2.99 26.498H13V27.715L6.758 28.526C6.312 28.637 6 29.037 6 29.496C6 30.049 6.447 30.496 7 30.496H25C25.553 30.496 26 30.049 26 29.496C26 29.037 25.688 28.637 25.242 28.525L19 27.715V26.498H29.01C30.662 26.494 32 25.154 32 23.5V3.5C32 1.842 30.656 0.5 29 0.5ZM30 23.5C30 24.051 29.551 24.5 29 24.5H3C2.448 24.5 2 24.051 2 23.5V3.5C2 2.948 2.448 2.5 3 2.5H29C29.551 2.5 30 2.948 30 3.5V23.5Z"
            fill="#BDBDBD" />
    </symbol>

    <symbol id="email" viewBox="0 0 26 18">
        <path
            d="M22.75 0.0625H3.25C1.45519 0.0625 0 1.5185 0 3.3125V13.875C0 15.6698 1.45519 17.125 3.25 17.125H22.75C24.5448 17.125 26 15.6698 26 13.875V3.3125C26 1.5185 24.5448 0.0625 22.75 0.0625ZM1.625 4.32812L7.31169 8.59375L1.625 12.8594V4.32812ZM24.375 13.875C24.375 14.772 23.6454 15.5 22.75 15.5H3.25C2.35381 15.5 1.625 14.772 1.625 13.875L7.9885 9.10156L11.5375 11.7641C11.9706 12.0875 12.4849 12.2516 13 12.2516C13.5143 12.2516 14.0286 12.0883 14.4617 11.7641L18.0115 9.10156L24.375 13.875ZM24.375 12.8594L18.6875 8.59375L24.375 4.32812V12.8594ZM13.9742 11.1141C13.6906 11.327 13.3542 11.4391 13 11.4391C12.6458 11.4391 12.3086 11.3262 12.025 11.1141L1.625 3.3125C1.625 2.41631 2.35381 1.6875 3.25 1.6875H22.75C23.6454 1.6875 24.375 2.41631 24.375 3.3125L13.9742 11.1141Z"
            fill="#BDBDBD" />
    </symbol>

    <symbol id="bubble" viewBox="0 0 26 26"> 
        <path
            d="M13 5.6875C13.2242 5.6875 13.4062 5.8695 13.4062 6.09375C13.4062 6.318 13.2234 6.5 13 6.5C8.67181 6.5 4.875 8.77825 4.875 11.375C4.875 11.5992 4.693 11.7812 4.46875 11.7812C4.2445 11.7812 4.0625 11.5992 4.0625 11.375C4.0625 8.29238 8.15506 5.6875 13 5.6875ZM13 1.625C5.81994 1.625 0 5.99056 0 11.375C0 14.7282 2.25794 17.6849 5.694 19.4399C5.694 19.4618 5.6875 19.4764 5.6875 19.5C5.6875 20.9568 4.59956 22.5249 4.121 23.348C4.12181 23.348 4.12262 23.348 4.12262 23.348C4.08444 23.4374 4.0625 23.5357 4.0625 23.6389C4.0625 24.0451 4.39156 24.375 4.79862 24.375C4.875 24.375 5.00906 24.3547 5.00581 24.3636C7.54487 23.9476 9.93687 21.6149 10.4926 20.9389C11.3043 21.0584 12.1412 21.125 13 21.125C20.1784 21.125 26 16.7594 26 11.375C26 5.99056 20.1793 1.625 13 1.625ZM13 19.5C12.2549 19.5 11.4904 19.4431 10.7283 19.3318C10.6494 19.3188 10.5706 19.3147 10.4926 19.3147C10.01 19.3147 9.54769 19.5292 9.2365 19.9079C8.88875 20.3312 7.89913 21.2761 6.72994 21.9708C7.04681 21.2436 7.29462 20.4287 7.31169 19.5886C7.31656 19.5366 7.319 19.4837 7.319 19.4391C7.319 18.8281 6.97694 18.2699 6.43338 17.992C3.42225 16.4547 1.625 13.9807 1.625 11.375C1.625 6.89488 6.7275 3.25 13 3.25C19.2709 3.25 24.375 6.89488 24.375 11.375C24.375 15.8551 19.2717 19.5 13 19.5Z"
            fill="white" />
    </symbol>

    <symbol id="calendar" viewBox="0 0 26 26">
        <path
            d="M23.8339 2.4375H20.3125V0.8125C20.3125 0.363188 19.9493 0 19.5 0C19.0507 0 18.6875 0.363188 18.6875 0.8125V2.4375H13.8125V0.8125C13.8125 0.363188 13.4485 0 13 0C12.5515 0 12.1875 0.363188 12.1875 0.8125V2.4375H7.3125V0.8125C7.3125 0.363188 6.9485 0 6.5 0C6.0515 0 5.6875 0.363188 5.6875 0.8125V2.4375H2.16694C0.970125 2.4375 0 3.40681 0 4.60362V23.8331C0 25.0299 0.970125 26 2.16694 26H23.8339C25.0307 26 26 25.0299 26 23.8331V4.60362C26 3.40681 25.0307 2.4375 23.8339 2.4375ZM24.375 23.8331C24.375 24.1321 24.1321 24.375 23.8339 24.375H2.16694C1.86794 24.375 1.625 24.1321 1.625 23.8331V4.60362C1.625 4.30544 1.86794 4.0625 2.16694 4.0625H5.6875V5.6875C5.6875 6.13681 6.0515 6.5 6.5 6.5C6.9485 6.5 7.3125 6.13681 7.3125 5.6875V4.0625H12.1875V5.6875C12.1875 6.13681 12.5515 6.5 13 6.5C13.4485 6.5 13.8125 6.13681 13.8125 5.6875V4.0625H18.6875V5.6875C18.6875 6.13681 19.0507 6.5 19.5 6.5C19.9493 6.5 20.3125 6.13681 20.3125 5.6875V4.0625H23.8339C24.1321 4.0625 24.375 4.30544 24.375 4.60362V23.8331ZM5.6875 9.75H8.9375V12.1875H5.6875V9.75ZM5.6875 13.8125H8.9375V16.25H5.6875V13.8125ZM5.6875 17.875H8.9375V20.3125H5.6875V17.875ZM11.375 17.875H14.625V20.3125H11.375V17.875ZM11.375 13.8125H14.625V16.25H11.375V13.8125ZM11.375 9.75H14.625V12.1875H11.375V9.75ZM17.0625 17.875H20.3125V20.3125H17.0625V17.875ZM17.0625 13.8125H20.3125V16.25H17.0625V13.8125ZM17.0625 9.75H20.3125V12.1875H17.0625V9.75Z"
            fill="#BDBDBD" />
    </symbol>
    <symbol id="news" viewBox="0 0 32 32">
        <path
            d="M29 0H7C5.343 0 4 1.342 4 3V5H3C1.343 5 0 6.342 0 8V28C0 30.209 1.791 32 4 32H28C30.209 32 32 30.209 32 28V3C32 1.342 30.656 0 29 0ZM30 28C30 29.102 29.102 30 28 30H4C2.897 30 2 29.102 2 28V8C2 7.448 2.448 7 3 7H4V27C4 27.553 4.447 28 5 28C5.553 28 6 27.553 6 27V3C6 2.448 6.448 2 7 2H29C29.551 2 30 2.448 30 3V28ZM19.498 13.005C19.223 13.005 18.998 12.781 18.998 12.505C18.998 12.229 19.223 12.005 19.498 12.005H27.498C27.775 12.005 27.998 12.229 27.998 12.505C27.998 12.781 27.775 13.005 27.498 13.005H19.498ZM19.498 10.005C19.223 10.005 18.998 9.781 18.998 9.505C18.998 9.229 19.223 9.005 19.498 9.005H27.498C27.775 9.005 27.998 9.229 27.998 9.505C27.998 9.781 27.775 10.005 27.498 10.005H19.498ZM19.498 7.005C19.223 7.005 18.998 6.781 18.998 6.505C18.998 6.229 19.223 6.005 19.498 6.005H27.498C27.775 6.005 27.998 6.229 27.998 6.505C27.998 6.781 27.775 7.005 27.498 7.005H19.498ZM16.5 27.004C16.776 27.004 17 27.229 17 27.504C17 27.781 16.775 28.004 16.5 28.004H8.5C8.224 28.004 8 27.781 8 27.504C8 27.229 8.224 27.004 8.5 27.004H16.5ZM16.5 24.004C16.776 24.004 17 24.229 17 24.504C17 24.781 16.775 25.004 16.5 25.004H8.5C8.224 25.004 8 24.781 8 24.504C8 24.229 8.224 24.004 8.5 24.004H16.5ZM16.5 21.004C16.776 21.004 17 21.229 17 21.504C17 21.781 16.775 22.004 16.5 22.004H8.5C8.224 22.004 8 21.781 8 21.504C8 21.229 8.224 21.004 8.5 21.004H16.5ZM27.5 27.004C27.775 27.004 28 27.229 28 27.504C28 27.781 27.775 28.004 27.5 28.004H19.5C19.223 28.004 19 27.781 19 27.504C19 27.229 19.223 27.004 19.5 27.004H27.5ZM27.5 24.004C27.775 24.004 28 24.229 28 24.504C28 24.781 27.775 25.004 27.5 25.004H19.5C19.223 25.004 19 24.781 19 24.504C19 24.229 19.223 24.004 19.5 24.004H27.5ZM27.5 21.004C27.775 21.004 28 21.229 28 21.504C28 21.781 27.775 22.004 27.5 22.004H19.5C19.223 22.004 19 21.781 19 21.504C19 21.229 19.223 21.004 19.5 21.004H27.5ZM27.5 15.004C27.775 15.004 28 15.228 28 15.504C28 15.78 27.775 16.004 27.5 16.004H8.5C8.224 16.004 8 15.78 8 15.504C8 15.228 8.224 15.004 8.5 15.004H27.5ZM27.5 18.004C27.775 18.004 28 18.229 28 18.504C28 18.781 27.775 19.004 27.5 19.004H8.5C8.224 19.004 8 18.781 8 18.504C8 18.229 8.224 18.004 8.5 18.004H27.5ZM9 13H16C16.553 13 17 12.553 17 12V5.004C17 4.451 16.553 4.004 16 4.004H9C8.447 4.004 8 4.451 8 5.004V12C8 12.552 8.447 13 9 13ZM10 6H15V11H10V6Z"
            fill="#BDBDBD" />
    </symbol>

    <symbol id="study" viewBox="0 0 32 32">
        <g clip-path="url(#clip0_16_499)">
            <path
                d="M32 8C32 6.594 31.043 5.392 29.674 5.076L16.661 2.073C16.443 2.024 16.221 2 16 2C15.779 2 15.557 2.024 15.325 2.076L2.326 5.076C0.956 5.392 0 6.594 0 8C0 9.406 0.957 10.608 2.325 10.924L5 11.541V20C5 22.654 8.038 25 16 25C23.962 25 27 22.654 27 20V11.541L29.674 10.924C31.043 10.608 32 9.406 32 8ZM25 20C25 21.105 22 23 16 23C10 23 7 21.105 7 20V12.003L15.338 13.927C15.556 13.976 15.779 14 16 14C16.221 14 16.444 13.976 16.674 13.924L25 12.003V20ZM16.225 11.975C16.15 11.991 16.075 12 16 12C15.925 12 15.849 11.991 15.775 11.975L2.775 8.975C2.321 8.87 2 8.466 2 8C2 7.534 2.321 7.13 2.775 7.025L15.775 4.025C15.849 4.009 15.924 4 16 4C16.076 4 16.151 4.009 16.225 4.025L29.225 7.025C29.678 7.13 30 7.534 30 8C30 8.466 29.678 8.87 29.225 8.975L16.225 11.975ZM29 13C29 12.447 29.447 12 30 12C30.552 12 31 12.447 31 13V22C31 22.553 30.552 23 30 23C29.447 23 29 22.553 29 22V13ZM30 24C31.104 24 32 26.896 32 28C32 29.104 31.104 30 30 30C28.895 30 28 29.104 28 28C28 26.896 28.895 24 30 24Z"
                fill="#BDBDBD" />
        </g>
        <defs>
            <clipPath id="clip0_16_499">
                <rect width="32" height="32" fill="#BDBDBD" />
            </clipPath>
        </defs>
    </symbol>

    <symbol id="files" viewBox="0 0 32 32">
        <path
            d="M31.924 16.455L27.922 1.449C27.68 0.596 26.889 0 26 0H6C5.11 0 4.32 0.596 4.078 1.449L0.076 16.455C0.025 16.637 0 16.82 0 17V24C0 26.209 1.791 28 4 28H28C30.209 28 32 26.209 32 24V17C32 16.82 31.975 16.637 31.924 16.455ZM30 24C30 25.102 29.102 26 28 26H4C2.897 26 2 25.102 2 24V17L6.001 1.999H25.998L30 17V24ZM23.742 4H8.258C7.805 4 7.408 4.305 7.291 4.743L3.846 16.743C3.767 17.044 3.83 17.364 4.02 17.61C4.21 17.856 4.502 18 4.812 18H9.38L10.827 20.895C11.167 21.572 11.859 22 12.617 22H19.383C20.141 22 20.832 21.572 21.172 20.895L22.619 18H27.187C27.498 18 27.791 17.855 27.98 17.609C28.169 17.363 28.232 17.043 28.154 16.742L24.709 4.742C24.592 4.304 24.195 4 23.742 4ZM24.281 16H22.619C21.857 16 21.172 16.422 20.83 17.105L19.383 20H12.617L11.17 17.105C10.828 16.422 10.143 16 9.381 16H5.334L8.258 5H23.742L26.666 16H24.281Z"
            fill="#BDBDBD" />
    </symbol>

    <symbol id="location" viewBox="0 0 32 32">
        <path
            d="M16.002 17.746C19.311 17.746 22.002 15.054 22.002 11.746C22.002 8.438 19.311 5.746 16.002 5.746C12.693 5.746 10.002 8.437 10.002 11.746C10.002 15.055 12.693 17.746 16.002 17.746ZM16.002 6.746C18.76 6.746 21.002 8.988 21.002 11.746C21.002 14.504 18.76 16.746 16.002 16.746C13.244 16.746 11.002 14.504 11.002 11.746C11.002 8.988 13.244 6.746 16.002 6.746ZM16 0C9.382 0 4 5.316 4 12.001C4 19.001 10.001 26.162 14.376 31.195C14.392 31.215 15.094 32 15.962 32C15.964 32 16.035 32 16.039 32C16.906 32 17.609 31.215 17.625 31.195C22.002 26.162 28.002 19.002 28.002 12.001C28.002 5.316 22.619 0 16 0V0ZM16.117 29.883C16.096 29.903 16.035 29.947 15.982 29.981C15.972 29.954 15.898 29.895 15.853 29.848C12.188 25.631 6 18.514 6 12.001C6 6.487 10.487 2 16 2C21.516 2 26.002 6.487 26.002 12.002C26.002 18.514 19.814 25.631 16.117 29.883Z"
            fill="#BDBDBD" />
    </symbol>

    <symbol id="logo" viewBox="0 0 32 32">
        <path
            d="M15.962 31.9903C24.5889 31.9903 31.5824 24.8312 31.5824 16C31.5824 7.1688 24.5889 0.00970459 15.962 0.00970459C7.33514 0.00970459 0.341675 7.1688 0.341675 16C0.341675 24.8312 7.33514 31.9903 15.962 31.9903Z"
            fill="#9E8CFC" />
        <path
            d="M11.0497 30.179C11.6887 30.3997 13.8346 31.1058 13.9259 30.4154C13.9754 30.0365 12.8429 29.6483 11.3096 28.8264C9.12893 27.6602 7.13397 26.1688 5.39166 24.4022C2.84854 21.879 1.38622 18.4464 1.31948 14.8431C1.18952 10.0056 3.05851 6.09492 6.13276 3.57129C2.37333 6.50737 0.122496 11.002 0.00592228 15.8059C-0.0853614 19.3048 0.881627 22.2527 2.69802 24.936C3.26205 25.6732 3.92137 26.3303 4.6583 26.8898C6.39888 28.2221 8.94399 29.4542 11.0497 30.1774"
            fill="white" />
        <path
            d="M31.7974 12.3351C30.8288 7.72621 27.818 4.49966 23.7907 2.22025C26.8773 4.43861 31.2095 9.15554 28.6489 13.3167C26.4828 16.6497 21.2224 15.9969 18.3369 14.4126C14.9145 12.5339 10.6319 8.30702 14.8557 4.1756C17.5943 1.50168 26.3049 4.49966 24.7716 8.49645C23.8774 10.8213 20.3962 10.3046 18.8305 9.16806C17.6763 8.32894 16.7046 6.88709 17.2198 5.39827C17.3838 4.92079 17.3606 4.18029 16.6938 4.7251C16.2018 5.13213 15.9465 5.80218 15.8599 6.42839C15.1311 11.64 24.3075 15.6807 27.0305 10.6381C28.4431 8.02053 26.1533 4.21943 23.2709 2.6633C21.1048 1.48915 18.8506 0.664118 16.0873 0.864506C11.6686 1.17761 7.96151 3.97991 7.49581 8.54812C7.03165 13.0881 10.0316 17.1742 13.5639 19.618C17.2771 22.1854 22.2683 23.8778 26.8356 22.3467C30.9294 20.9737 32.6205 16.2192 31.7974 12.3383"
            fill="white" />
    </symbol>

    <symbol id="profile" viewBox="0 0 26 26">
        <g clip-path="url(#clip0_16_145)">
            <path
                d="M25.277 23.023C25.1137 22.9149 22.1505 20.9714 17.7427 20.0176C19.3596 17.9692 20.398 15.2141 20.8392 13.3802C21.4518 10.8387 21.2137 5.86625 18.773 2.76737C17.3462 0.956312 15.3499 0 13.0002 0C10.6504 0 8.6541 0.957125 7.22816 2.76737C4.78742 5.86544 4.55016 10.8379 5.16198 13.3794C5.60316 15.2132 6.64073 17.9684 8.25841 20.0168C3.8506 20.9706 0.887415 22.9141 0.724915 23.0222C0.129352 23.4187 -0.137148 24.1597 0.0708522 24.8438C0.277227 25.5304 0.910165 26 1.62516 26H24.3752C25.091 26 25.7223 25.5304 25.9303 24.8446C26.1391 24.1605 25.8726 23.4195 25.277 23.023ZM16.4671 19.0109L16.2022 19.3472C14.2644 21.5735 11.7375 21.5735 9.80054 19.3472L9.53485 19.0109C7.27204 16.1436 6.14917 12.3508 6.6326 8.73275C7.07542 5.25606 9.06767 1.625 13.0002 1.625C16.9327 1.625 18.9257 5.25688 19.3685 8.73356C19.8504 12.3532 18.7315 16.1419 16.4671 19.0109ZM1.62516 24.375C1.73729 24.3002 4.49004 22.4949 8.60129 21.606L10.6195 21.1697C11.3402 21.6426 12.1308 21.9375 13.0002 21.9375C13.8704 21.9375 14.6601 21.6426 15.3808 21.1697L17.399 21.606C21.4778 22.4884 24.2208 24.2734 24.3752 24.375H1.62516Z"
                fill="#BDBDBD" />
        </g>
        <defs>
            <clipPath id="clip0_16_145">
                <rect width="26" height="26" fill="#BDBDBD" />
            </clipPath>
        </defs>
    </symbol>

    <symbol id="permissions" viewBox="0 0 20 26">
        <path
            d="M17.3125 10.5625V7.3125C17.3125 3.27356 14.0389 0 10 0C5.96106 0 2.6875 3.27356 2.6875 7.3125V10.5625C1.34119 10.5625 0.25 11.6537 0.25 13V18.6875C0.25 22.7264 3.52356 26 7.5625 26H12.4375C16.4764 26 19.75 22.7264 19.75 18.6875V13C19.75 11.6529 18.658 10.5625 17.3125 10.5625ZM4.3125 7.3125C4.3125 4.17138 6.85888 1.625 10 1.625C13.1411 1.625 15.6875 4.17138 15.6875 7.3125V10.5625H14.0625V7.31413C14.0625 5.07 12.2441 3.25162 10 3.25162C7.75588 3.25162 5.9375 5.07 5.9375 7.31413V10.5625H4.3125V7.3125ZM13.25 7.3125V10.5625H6.75V7.3125C6.75 5.51769 8.20519 4.0625 10 4.0625C11.7948 4.0625 13.25 5.51769 13.25 7.3125ZM18.125 15.4375V18.6875C18.125 21.8229 15.5729 24.375 12.4375 24.375H7.5625C4.42706 24.375 1.875 21.8229 1.875 18.6875V13C1.875 12.5515 2.239 12.1875 2.6875 12.1875C3.22944 12.1875 3.77056 12.1875 4.3125 12.1875H15.6875C16.2286 12.1875 16.7698 12.1875 17.3125 12.1875C17.7602 12.1875 18.125 12.5515 18.125 13V15.4375ZM10 15.4375C10.897 15.4375 11.625 16.1647 11.625 17.0625C11.625 17.5573 11.3585 18.499 11.0839 19.2416C10.8621 19.8412 10.6354 20.3109 10 20.3109C9.41581 20.3109 9.13794 19.8364 8.91694 19.2335C8.64556 18.4925 8.375 17.5557 8.375 17.0625C8.375 16.1647 9.103 15.4375 10 15.4375Z"
            fill="#BDBDBD" />
    </symbol>

    <symbol id="log" viewBox="0 0 26 26">
        <path
            d="M17.8783 0C13.3908 0 9.75325 3.63838 9.75325 8.125C9.75325 9.16906 9.97181 10.1571 10.3326 11.0736L0.4615 20.9438C0.176313 21.2298 0 21.5012 0 21.9375V24.375C0 25.2444 0.754813 26 1.625 26H4.0625C4.498 26 4.77344 25.8253 5.05862 25.5417L6.22456 24.375H8.12825C9.02525 24.375 9.75325 23.647 9.75325 22.75V21.125H11.3783C12.2752 21.125 13.0033 20.397 13.0033 19.5V17.5955L14.9281 15.6691C15.8454 16.0306 16.8326 16.25 17.8783 16.25C22.3641 16.25 26.0033 12.6116 26.0033 8.125C26.0033 3.63838 22.3641 0 17.8783 0ZM17.8783 14.625C16.6757 14.625 15.561 14.2756 14.5949 13.7052L14.3154 13.9839L11.8536 16.4466C11.5489 16.7513 11.3774 17.1641 11.3774 17.5955V19.5H9.75244C8.85544 19.5 8.12744 20.2272 8.12744 21.125V22.75H6.22456C5.79394 22.75 5.38038 22.9214 5.07569 23.2261L3.92356 24.3783L1.62744 24.375L1.625 22.0594L11.1028 12.5986C11.1028 12.5986 11.1028 12.5994 11.1036 12.6003L12.2972 11.4067C11.7268 10.4406 11.3774 9.32669 11.3774 8.12419C11.3774 4.53456 14.2886 1.62419 17.8774 1.62419C21.4662 1.62419 24.3774 4.53456 24.3774 8.12419C24.3774 11.7138 21.4679 14.625 17.8783 14.625ZM22.6038 6.69419C21.6929 5.42506 20.5839 4.31763 19.3091 3.40031C19.1019 3.25 18.8337 3.21263 18.5924 3.29713C17.4639 3.69444 16.6912 4.46631 16.2963 5.59488C16.2662 5.67938 16.2516 5.76713 16.2516 5.85406C16.2516 6.01575 16.302 6.17581 16.3995 6.3115C17.3136 7.58225 18.421 8.6905 19.6926 9.60456C19.9006 9.75406 20.1671 9.79225 20.4084 9.70856C21.5386 9.31369 22.3113 8.54019 22.7078 7.41081C22.7378 7.32631 22.7524 7.23856 22.7524 7.15163C22.7516 6.98994 22.7004 6.82988 22.6038 6.69419ZM20.1663 8.94563C18.9654 8.08194 17.9197 7.03625 17.0625 5.86381C17.3769 4.96763 17.9652 4.37937 18.8354 4.05925C20.0371 4.92456 21.0811 5.96781 21.9359 7.15569C21.6182 8.04537 21.0316 8.63037 20.1663 8.94563Z"
            fill="#BDBDBD" />
    </symbol>

    <symbol viewBox="0 0 26 18" id="feathers">
        <path
            d="M25.9716 8.818C25.9634 8.78387 25.9683 8.74731 25.9553 8.714C25.9504 8.70019 25.9383 8.69287 25.9334 8.67987C25.9253 8.66037 25.9269 8.63844 25.9163 8.61975C23.5601 4.10956 18.4308 0.87825 13.0195 0.87825C7.60745 0.87825 2.47895 4.10469 0.121072 8.61406C0.110509 8.63275 0.112134 8.65469 0.104009 8.67419C0.0983215 8.68719 0.0869465 8.6945 0.0820715 8.70831C0.0690715 8.74162 0.0739465 8.77819 0.0658215 8.81231C0.0511965 8.87325 0.037384 8.93175 0.037384 8.99431C0.037384 9.05688 0.052009 9.11456 0.0658215 9.17631C0.0739465 9.21044 0.0690715 9.247 0.0820715 9.28031C0.0869465 9.29412 0.099134 9.30144 0.104009 9.31444C0.112134 9.33394 0.110509 9.35588 0.121072 9.37456C2.47813 13.8847 7.60745 17.1161 13.0195 17.1161C18.4308 17.1161 23.5601 13.8896 25.9163 9.38025C25.9277 9.36156 25.9261 9.33962 25.9334 9.32012C25.9383 9.30712 25.9504 9.29981 25.9553 9.286C25.9683 9.25269 25.9634 9.21613 25.9716 9.182C25.9854 9.12025 26 9.06175 26 9C26 8.93825 25.9854 8.87894 25.9716 8.818ZM13.0187 15.4902C8.45651 15.4902 3.9902 12.8976 1.76476 8.99431C4.00238 5.08619 8.4622 2.50244 13.0187 2.50244C17.5793 2.50244 22.0464 5.09594 24.2718 8.99837C22.0342 12.9073 17.5752 15.4902 13.0187 15.4902ZM13.0187 5.74919C13.2429 5.74919 13.4233 5.93037 13.4233 6.15544C13.4233 6.37887 13.2421 6.56087 13.0187 6.56087V6.56169C11.6748 6.56169 10.582 7.6545 10.582 8.99675C10.582 9.221 10.4 9.403 10.1766 9.403C9.95313 9.403 9.77032 9.221 9.77032 8.99675C9.77032 7.20519 11.2223 5.75325 13.0138 5.75C13.0154 5.75 13.0171 5.74919 13.0187 5.74919ZM13 3.3125C9.85807 3.3125 7.31251 5.85888 7.31251 9C7.31251 12.1411 9.85888 14.6875 13 14.6875C16.1403 14.6875 18.6875 12.1403 18.6875 9C18.6875 5.85806 16.1403 3.3125 13 3.3125ZM13 13.875C10.3114 13.875 8.12501 11.6886 8.12501 9C8.12501 6.31144 10.3114 4.125 13 4.125C15.6886 4.125 17.875 6.31144 17.875 9C17.875 11.6886 15.6886 13.875 13 13.875Z"
            fill="#BDBDBD" />
    </symbol>

    <symbol id="ecommerce" viewBox="0 0 26 26">
        <path
            d="M13 16.25C13 15.3522 13.7272 14.625 14.625 14.625C15.5228 14.625 16.25 15.3522 16.25 16.25C16.25 17.1478 15.5228 17.875 14.625 17.875C13.7272 17.875 13 17.1478 13 16.25ZM23.5633 10.5625C23.5625 10.5625 23.5625 10.5625 23.5633 10.5625L23.5625 5.6875V3.25C23.5625 1.90369 22.4705 0.8125 21.125 0.8125H4.46875C2.00444 0.8125 0 2.81775 0 5.28125V21.5312C0 23.9948 2.00444 26 4.46875 26H19.0938C21.5573 26 23.5625 23.9948 23.5625 21.5312V20.3125C23.5625 20.3125 23.5625 20.3125 23.5633 20.3125C26.8117 17.8742 26.8117 13.0008 23.5633 10.5625ZM4.46875 2.4375H21.125C21.5727 2.4375 21.9375 2.8015 21.9375 3.25V8.2745C21.6824 8.1835 21.411 8.125 21.125 8.125H21.1242V4.0625C21.1242 3.61319 20.7602 3.25 20.3117 3.25H3.24919C2.80069 3.25 2.43669 3.61319 2.43669 4.0625V7.26619C1.93538 6.7535 1.625 6.05475 1.625 5.28125C1.625 3.71069 2.89738 2.4375 4.46875 2.4375ZM20.3117 4.875H3.24919V4.0625H20.3117V4.875ZM20.3117 5.6875V6.5H3.24919V5.6875H20.3117ZM20.3117 7.3125V8.125H4.46875C4.03 8.125 3.6205 8.01775 3.25 7.84062V7.3125H20.3117ZM21.9375 21.5312C21.9375 23.1018 20.6643 24.375 19.0938 24.375H4.46875C2.89738 24.375 1.625 23.1018 1.625 21.5312V8.72544C2.39769 9.36487 3.38894 9.75 4.46875 9.75H21.125C21.5727 9.75 21.9375 10.114 21.9375 10.5625V12.1875H14.625C12.3809 12.1875 10.5625 14.0059 10.5625 16.25C10.5625 18.4941 12.3817 20.3125 14.625 20.3125H21.9375V21.5312ZM22.9751 18.6875H14.625C13.2811 18.6875 12.1875 17.5939 12.1875 16.25C12.1875 14.9061 13.2811 13.8125 14.625 13.8125H21.9375C22.4388 13.806 22.9361 13.5631 23.2391 13.1592C23.3236 13.0455 23.3894 12.9179 23.4422 12.7847C23.4496 12.7668 23.4626 12.753 23.4691 12.7343C24.0532 13.5005 24.375 14.4397 24.375 15.4375C24.375 16.6871 23.8704 17.8466 22.9751 18.6875Z"
            fill="#BDBDBD" />
    </symbol>

    <symbol id="components" viewBox="0 0 26 26">
        <path
            d="M16.804 3.03225C16.4197 2.64875 15.9103 2.4375 15.3675 2.4375C14.8248 2.4375 14.3154 2.64875 13.9294 3.03306L12.7838 4.18031C12.3995 4.56381 12.1874 5.07406 12.1874 5.61763C12.1874 6.00031 12.2922 6.36675 12.4889 6.68444L1.45754 11.1036C0.719793 11.4278 0.190856 12.0932 0.0421681 12.8822C-0.108144 13.676 0.143731 14.4901 0.719793 15.0654L11.0548 25.2866C11.5 25.7319 12.0915 25.9846 12.7164 25.9992C12.731 26 12.7651 26 12.7797 26C12.9439 26 13.1104 25.9829 13.2754 25.9496C14.083 25.7822 14.7444 25.2241 15.0442 24.4644L19.3845 13.5964C19.7112 13.8117 20.0955 13.9271 20.4952 13.9271C21.0396 13.9271 21.549 13.715 21.9317 13.3315L23.0749 12.1875C23.4625 11.8024 23.6745 11.2913 23.6745 10.7469C23.6745 10.2026 23.4617 9.69069 23.0798 9.31044L16.804 3.03225ZM13.5354 23.8607C13.4346 24.115 13.2128 24.3027 12.9447 24.3579C12.8829 24.3709 12.8204 24.3758 12.7586 24.375C12.5522 24.3701 12.3532 24.2873 12.2045 24.1378L1.86298 13.91C1.67286 13.7207 1.58917 13.4493 1.63954 13.1844C1.68911 12.9212 1.86623 12.6986 2.11242 12.5913L7.16373 10.5682C10.5673 11.7 13.9717 10.6096 17.3769 14.2423L13.5354 23.8607ZM21.9309 11.0337L20.782 12.1818C20.6236 12.3411 20.366 12.3411 20.2076 12.1818L18.7711 10.7461L17.6076 13.6622L17.7043 13.416C15.2587 10.9744 12.7732 10.6665 10.5307 10.3911C9.81004 10.3025 9.11129 10.2099 8.42473 10.062L15.3237 7.29869L13.9302 5.90525C13.7718 5.74681 13.7718 5.48925 13.9302 5.33081L15.0791 4.18112C15.2375 4.02269 15.4951 4.02269 15.6535 4.18112L21.9301 10.4593C22.091 10.6178 22.091 10.8753 21.9309 11.0337ZM13.4062 17.0625C14.5258 17.0625 15.4374 16.1517 15.4374 15.0312C15.4374 13.9108 14.5266 13 13.4062 13C12.2857 13 11.3749 13.9108 11.3749 15.0312C11.3749 16.1517 12.2865 17.0625 13.4062 17.0625ZM13.4062 13.8125C14.0789 13.8125 14.6249 14.3585 14.6249 15.0312C14.6249 15.704 14.0789 16.25 13.4062 16.25C12.7326 16.25 12.1874 15.704 12.1874 15.0312C12.1874 14.3585 12.7326 13.8125 13.4062 13.8125ZM23.9687 0C22.8482 0 21.9374 0.910813 21.9374 2.03125C21.9374 3.15169 22.8482 4.0625 23.9687 4.0625C25.0891 4.0625 25.9999 3.15169 25.9999 2.03125C25.9999 0.910813 25.0891 0 23.9687 0ZM23.9687 3.25C23.2959 3.25 22.7499 2.704 22.7499 2.03125C22.7499 1.3585 23.2959 0.8125 23.9687 0.8125C24.6414 0.8125 25.1874 1.3585 25.1874 2.03125C25.1874 2.704 24.6414 3.25 23.9687 3.25ZM6.49992 13.8125C6.49992 14.7087 7.22873 15.4375 8.12492 15.4375C9.0211 15.4375 9.74992 14.7087 9.74992 13.8125C9.74992 12.9163 9.0211 12.1875 8.12492 12.1875C7.22873 12.1875 6.49992 12.9163 6.49992 13.8125ZM8.12492 13C8.57342 13 8.93742 13.3632 8.93742 13.8125C8.93742 14.2618 8.57342 14.625 8.12492 14.625C7.67642 14.625 7.31242 14.2618 7.31242 13.8125C7.31242 13.3632 7.67642 13 8.12492 13ZM9.74992 18.6875C9.74992 18.239 10.1139 17.875 10.5624 17.875C11.0109 17.875 11.3749 18.239 11.3749 18.6875C11.3749 19.136 11.0109 19.5 10.5624 19.5C10.1139 19.5 9.74992 19.136 9.74992 18.6875ZM22.7499 6.5C22.7499 6.0515 23.1139 5.6875 23.5624 5.6875C24.0109 5.6875 24.3749 6.0515 24.3749 6.5C24.3749 6.9485 24.0109 7.3125 23.5624 7.3125C23.1139 7.3125 22.7499 6.9485 22.7499 6.5Z"
            fill="#BDBDBD" />
    </symbol>

    <symbol id="pages" viewBox="0 0 26 26">
        <path
            d="M25.5239 6.16281L20.6489 1.28781C20.3442 0.983125 19.9298 0.8125 19.5 0.8125H2.4375C1.09362 0.8125 0 1.90531 0 3.25V22.75C0 24.0939 1.09362 25.1875 2.4375 25.1875H23.5625C24.9064 25.1875 26 24.0939 26 22.75V7.3125C26 6.88106 25.8286 6.4675 25.5239 6.16281ZM24.375 22.75C24.375 23.1993 24.0118 23.5625 23.5625 23.5625H2.4375C1.98819 23.5625 1.625 23.1993 1.625 22.75V3.25C1.625 2.80069 1.98819 2.4375 2.4375 2.4375H18.6875V5.6875H18.6859C18.6859 7.03381 19.7779 8.125 21.1234 8.125H24.375V22.75ZM21.9359 7.3125H21.1234C20.228 7.3125 19.4984 6.58369 19.4984 5.6875H19.5V2.4375L24.375 7.3125H21.9359ZM12.5938 6.5C12.3695 6.5 12.1875 6.31881 12.1875 6.09375C12.1875 5.86869 12.3695 5.6875 12.5938 5.6875H16.6562C16.8797 5.6875 17.0625 5.8695 17.0625 6.09375C17.0625 6.318 16.8797 6.5 16.6562 6.5H12.5938ZM12.5938 8.9375C12.3695 8.9375 12.1875 8.7555 12.1875 8.53125C12.1875 8.307 12.3695 8.125 12.5938 8.125H16.6562C16.8797 8.125 17.0625 8.307 17.0625 8.53125C17.0625 8.7555 16.8797 8.9375 16.6562 8.9375H12.5938ZM12.1875 10.9688C12.1875 10.7437 12.3695 10.5625 12.5938 10.5625H22.3438C22.5672 10.5625 22.75 10.7445 22.75 10.9688C22.75 11.193 22.5672 11.375 22.3438 11.375H12.5938C12.3695 11.375 12.1875 11.193 12.1875 10.9688ZM22.3438 15.4375C22.5672 15.4375 22.75 15.6187 22.75 15.8438C22.75 16.0672 22.5672 16.25 22.3438 16.25H3.65625C3.432 16.25 3.25 16.0672 3.25 15.8438C3.25 15.6187 3.432 15.4375 3.65625 15.4375H22.3438ZM22.3438 17.875C22.5672 17.875 22.75 18.0562 22.75 18.2812C22.75 18.5047 22.5672 18.6875 22.3438 18.6875H3.65625C3.432 18.6875 3.25 18.5047 3.25 18.2812C3.25 18.0562 3.432 17.875 3.65625 17.875H22.3438ZM22.3438 20.3125C22.5672 20.3125 22.75 20.4937 22.75 20.7188C22.75 20.9422 22.5672 21.125 22.3438 21.125H3.65625C3.432 21.125 3.25 20.9422 3.25 20.7188C3.25 20.4937 3.432 20.3125 3.65625 20.3125H22.3438ZM22.3438 13C22.5672 13 22.75 13.182 22.75 13.4062C22.75 13.6305 22.5672 13.8125 22.3438 13.8125H3.65625C3.432 13.8125 3.25 13.6313 3.25 13.4062C3.25 13.1812 3.432 13 3.65625 13H22.3438ZM4.0625 11.375H9.75C10.1993 11.375 10.5625 11.0118 10.5625 10.5625V5.6875C10.5625 5.23819 10.1993 4.875 9.75 4.875H4.0625C3.61319 4.875 3.25 5.23819 3.25 5.6875V10.5625C3.25 11.011 3.61319 11.375 4.0625 11.375ZM4.875 6.5H8.9375V9.75H4.875V6.5Z"
            fill="#BDBDBD" />
    </symbol>

    <symbol id="editor" viewBox="0 0 26 26">
        <path
            d="M23.8834 2.09625C22.5469 0.761312 20.787 0 19.0523 0C17.589 0 16.2419 0.54275 15.2579 1.52506L11.3035 5.50956C11.2913 5.52094 11.2775 5.52825 11.2653 5.54044C11.2588 5.54694 11.2548 5.55587 11.2483 5.56156L11.2499 5.56319L2.85756 14.0205C2.47081 14.4048 2.1905 14.8834 2.0345 15.4058L0.125938 22.3186C0.124312 22.3372 0 22.88 0 23.1562C0 24.726 1.27481 26 2.847 26C3.15981 26 3.76512 25.8505 3.78706 25.8472L10.6754 24.0362C11.1987 23.881 11.674 23.5982 12.0608 23.2107L24.4619 10.712C26.7174 8.45487 26.4631 4.67188 23.8834 2.09625ZM13.0114 19.3334C12.9447 18.6006 12.7376 17.8815 12.4272 17.199L20.1094 9.51762C20.579 11.0012 20.3377 12.5531 19.3083 13.5834C19.3018 13.5899 19.2936 13.5939 19.2879 13.6004L19.2993 13.611L13.0203 19.9404C13.0203 19.7381 13.0301 19.5398 13.0114 19.3334ZM12.0193 16.458C11.7163 15.9599 11.3717 15.4789 10.9452 15.0532C10.4487 14.5568 9.87919 14.1676 9.28444 13.8409L17.0292 6.09619C17.6369 6.36594 18.2195 6.75025 18.7338 7.26456C19.1734 7.7025 19.513 8.19325 19.7746 8.7035L12.0193 16.458ZM8.51987 13.4566C7.7675 13.1536 6.97937 12.9805 6.18962 12.9699L12.4483 6.66331C13.4062 5.72894 14.8013 5.46 16.1753 5.80044L8.51987 13.4566ZM3.38569 24.2718C3.29712 24.2921 3.02169 24.362 2.83481 24.375C2.16694 24.3669 1.625 23.8241 1.625 23.1562C1.63475 23.0198 1.68919 22.7849 1.70788 22.6996L2.56344 19.6007C3.49213 19.5756 4.4915 19.9371 5.27719 20.7244C6.07506 21.5207 6.45044 22.5396 6.40981 23.4796L3.38569 24.2718ZM7.21012 23.2676C7.19062 22.1772 6.747 21.0429 5.85162 20.1492C5.005 19.3018 3.89675 18.8126 2.79175 18.7688L3.601 15.8381C3.6595 15.6431 3.77569 15.4505 3.91869 15.2823C5.54856 14.1156 8.05513 14.4601 9.79631 16.2029C11.6383 18.044 11.9226 20.7415 10.504 22.3519C10.4097 22.4014 10.3147 22.4486 10.2123 22.4786L7.21012 23.2676ZM23.3114 9.56475L21.9432 10.9436C21.9432 10.7599 21.9651 10.5836 21.9481 10.3959C21.8051 8.82375 21.0722 7.30356 19.8819 6.11487C18.5583 4.7905 16.8033 4.03081 15.0654 4.02594L16.4109 2.66906C17.0844 1.99713 18.0245 1.625 19.0523 1.625C20.3596 1.625 21.7027 2.2165 22.7354 3.24594C23.7047 4.21362 24.2824 5.41613 24.3653 6.63244C24.4416 7.7675 24.0671 8.80831 23.3114 9.56475Z"
            fill="#BDBDBD" />
    </symbol>
</svg>