<svg width="26" height="26" viewBox="0 0 26 26" fill="none" xmlns="http://www.w3.org/2000/svg">
    <path
        d="M13 5.6875C13.2242 5.6875 13.4062 5.8695 13.4062 6.09375C13.4062 6.318 13.2234 6.5 13 6.5C8.67181 6.5 4.875 8.77825 4.875 11.375C4.875 11.5992 4.693 11.7812 4.46875 11.7812C4.2445 11.7812 4.0625 11.5992 4.0625 11.375C4.0625 8.29238 8.15506 5.6875 13 5.6875ZM13 1.625C5.81994 1.625 0 5.99056 0 11.375C0 14.7282 2.25794 17.6849 5.694 19.4399C5.694 19.4618 5.6875 19.4764 5.6875 19.5C5.6875 20.9568 4.59956 22.5249 4.121 23.348C4.12181 23.348 4.12262 23.348 4.12262 23.348C4.08444 23.4374 4.0625 23.5357 4.0625 23.6389C4.0625 24.0451 4.39156 24.375 4.79862 24.375C4.875 24.375 5.00906 24.3547 5.00581 24.3636C7.54487 23.9476 9.93687 21.6149 10.4926 20.9389C11.3043 21.0584 12.1412 21.125 13 21.125C20.1784 21.125 26 16.7594 26 11.375C26 5.99056 20.1793 1.625 13 1.625ZM13 19.5C12.2549 19.5 11.4904 19.4431 10.7283 19.3318C10.6494 19.3188 10.5706 19.3147 10.4926 19.3147C10.01 19.3147 9.54769 19.5292 9.2365 19.9079C8.88875 20.3312 7.89913 21.2761 6.72994 21.9708C7.04681 21.2436 7.29462 20.4287 7.31169 19.5886C7.31656 19.5366 7.319 19.4837 7.319 19.4391C7.319 18.8281 6.97694 18.2699 6.43338 17.992C3.42225 16.4547 1.625 13.9807 1.625 11.375C1.625 6.89488 6.7275 3.25 13 3.25C19.2709 3.25 24.375 6.89488 24.375 11.375C24.375 15.8551 19.2717 19.5 13 19.5Z"
        fill="white" />
</svg>
    