<svg width="26" height="26" viewBox="0 0 26 26" fill="none" xmlns="http://www.w3.org/2000/svg">
    <path
        d="M23.8339 2.4375H20.3125V0.8125C20.3125 0.363188 19.9493 0 19.5 0C19.0507 0 18.6875 0.363188 18.6875 0.8125V2.4375H13.8125V0.8125C13.8125 0.363188 13.4485 0 13 0C12.5515 0 12.1875 0.363188 12.1875 0.8125V2.4375H7.3125V0.8125C7.3125 0.363188 6.9485 0 6.5 0C6.0515 0 5.6875 0.363188 5.6875 0.8125V2.4375H2.16694C0.970125 2.4375 0 3.40681 0 4.60362V23.8331C0 25.0299 0.970125 26 2.16694 26H23.8339C25.0307 26 26 25.0299 26 23.8331V4.60362C26 3.40681 25.0307 2.4375 23.8339 2.4375ZM24.375 23.8331C24.375 24.1321 24.1321 24.375 23.8339 24.375H2.16694C1.86794 24.375 1.625 24.1321 1.625 23.8331V4.60362C1.625 4.30544 1.86794 4.0625 2.16694 4.0625H5.6875V5.6875C5.6875 6.13681 6.0515 6.5 6.5 6.5C6.9485 6.5 7.3125 6.13681 7.3125 5.6875V4.0625H12.1875V5.6875C12.1875 6.13681 12.5515 6.5 13 6.5C13.4485 6.5 13.8125 6.13681 13.8125 5.6875V4.0625H18.6875V5.6875C18.6875 6.13681 19.0507 6.5 19.5 6.5C19.9493 6.5 20.3125 6.13681 20.3125 5.6875V4.0625H23.8339C24.1321 4.0625 24.375 4.30544 24.375 4.60362V23.8331ZM5.6875 9.75H8.9375V12.1875H5.6875V9.75ZM5.6875 13.8125H8.9375V16.25H5.6875V13.8125ZM5.6875 17.875H8.9375V20.3125H5.6875V17.875ZM11.375 17.875H14.625V20.3125H11.375V17.875ZM11.375 13.8125H14.625V16.25H11.375V13.8125ZM11.375 9.75H14.625V12.1875H11.375V9.75ZM17.0625 17.875H20.3125V20.3125H17.0625V17.875ZM17.0625 13.8125H20.3125V16.25H17.0625V13.8125ZM17.0625 9.75H20.3125V12.1875H17.0625V9.75Z"
        fill="#BDBDBD" />
</svg>
    