<svg width="32" height="31" viewBox="0 0 32 31" fill="none" xmlns="http://www.w3.org/2000/svg">
    <path
        d="M27 4.496L5 4.5C4.447 4.5 4 4.943 4 5.496V19.496C4 20.049 4.447 20.496 5 20.496H27C27.553 20.496 28 20.049 28 19.496V5.496C28 4.943 27.553 4.496 27 4.496ZM27 19.5H5V5.496H27V19.5ZM29 0.5H3C1.343 0.5 0 1.842 0 3.5V23.5C0 25.154 1.338 26.494 2.99 26.498H13V27.715L6.758 28.526C6.312 28.637 6 29.037 6 29.496C6 30.049 6.447 30.496 7 30.496H25C25.553 30.496 26 30.049 26 29.496C26 29.037 25.688 28.637 25.242 28.525L19 27.715V26.498H29.01C30.662 26.494 32 25.154 32 23.5V3.5C32 1.842 30.656 0.5 29 0.5ZM30 23.5C30 24.051 29.551 24.5 29 24.5H3C2.448 24.5 2 24.051 2 23.5V3.5C2 2.948 2.448 2.5 3 2.5H29C29.551 2.5 30 2.948 30 3.5V23.5Z"
        fill="#BDBDBD" />
</svg>
    