<svg width="32" height="28" viewBox="0 0 32 28" fill="none" xmlns="http://www.w3.org/2000/svg">
    <path
        d="M31.924 16.455L27.922 1.449C27.68 0.596 26.889 0 26 0H6C5.11 0 4.32 0.596 4.078 1.449L0.076 16.455C0.025 16.637 0 16.82 0 17V24C0 26.209 1.791 28 4 28H28C30.209 28 32 26.209 32 24V17C32 16.82 31.975 16.637 31.924 16.455ZM30 24C30 25.102 29.102 26 28 26H4C2.897 26 2 25.102 2 24V17L6.001 1.999H25.998L30 17V24ZM23.742 4H8.258C7.805 4 7.408 4.305 7.291 4.743L3.846 16.743C3.767 17.044 3.83 17.364 4.02 17.61C4.21 17.856 4.502 18 4.812 18H9.38L10.827 20.895C11.167 21.572 11.859 22 12.617 22H19.383C20.141 22 20.832 21.572 21.172 20.895L22.619 18H27.187C27.498 18 27.791 17.855 27.98 17.609C28.169 17.363 28.232 17.043 28.154 16.742L24.709 4.742C24.592 4.304 24.195 4 23.742 4ZM24.281 16H22.619C21.857 16 21.172 16.422 20.83 17.105L19.383 20H12.617L11.17 17.105C10.828 16.422 10.143 16 9.381 16H5.334L8.258 5H23.742L26.666 16H24.281Z"
        fill="#BDBDBD" />
</svg>