<svg xmlns="http://www.w3.org/2000/svg" style="display:none">

    <symbol id="mail" viewBox="0 0 26 18">
        <path
            d="M22.75 0.0625H3.25C1.45519 0.0625 0 1.5185 0 3.3125V13.875C0 15.6698 1.45519 17.125 3.25 17.125H22.75C24.5448 17.125 26 15.6698 26 13.875V3.3125C26 1.5185 24.5448 0.0625 22.75 0.0625ZM1.625 4.32812L7.31169 8.59375L1.625 12.8594V4.32812ZM24.375 13.875C24.375 14.772 23.6454 15.5 22.75 15.5H3.25C2.35381 15.5 1.625 14.772 1.625 13.875L7.9885 9.10156L11.5375 11.7641C11.9706 12.0875 12.4849 12.2516 13 12.2516C13.5143 12.2516 14.0286 12.0883 14.4617 11.7641L18.0115 9.10156L24.375 13.875ZM24.375 12.8594L18.6875 8.59375L24.375 4.32812V12.8594ZM13.9742 11.1141C13.6906 11.327 13.3542 11.4391 13 11.4391C12.6458 11.4391 12.3086 11.3262 12.025 11.1141L1.625 3.3125C1.625 2.41631 2.35381 1.6875 3.25 1.6875H22.75C23.6454 1.6875 24.375 2.41631 24.375 3.3125L13.9742 11.1141Z"
            fill="#BDBDBD" />
    </symbol>

    <symbol id="bubble" viewBox="0 0 26 26">
        <path
            d="M13 5.6875C13.2242 5.6875 13.4062 5.8695 13.4062 6.09375C13.4062 6.318 13.2234 6.5 13 6.5C8.67181 6.5 4.875 8.77825 4.875 11.375C4.875 11.5992 4.693 11.7812 4.46875 11.7812C4.2445 11.7812 4.0625 11.5992 4.0625 11.375C4.0625 8.29238 8.15506 5.6875 13 5.6875ZM13 1.625C5.81994 1.625 0 5.99056 0 11.375C0 14.7282 2.25794 17.6849 5.694 19.4399C5.694 19.4618 5.6875 19.4764 5.6875 19.5C5.6875 20.9568 4.59956 22.5249 4.121 23.348C4.12181 23.348 4.12262 23.348 4.12262 23.348C4.08444 23.4374 4.0625 23.5357 4.0625 23.6389C4.0625 24.0451 4.39156 24.375 4.79862 24.375C4.875 24.375 5.00906 24.3547 5.00581 24.3636C7.54487 23.9476 9.93687 21.6149 10.4926 20.9389C11.3043 21.0584 12.1412 21.125 13 21.125C20.1784 21.125 26 16.7594 26 11.375C26 5.99056 20.1793 1.625 13 1.625ZM13 19.5C12.2549 19.5 11.4904 19.4431 10.7283 19.3318C10.6494 19.3188 10.5706 19.3147 10.4926 19.3147C10.01 19.3147 9.54769 19.5292 9.2365 19.9079C8.88875 20.3312 7.89913 21.2761 6.72994 21.9708C7.04681 21.2436 7.29462 20.4287 7.31169 19.5886C7.31656 19.5366 7.319 19.4837 7.319 19.4391C7.319 18.8281 6.97694 18.2699 6.43338 17.992C3.42225 16.4547 1.625 13.9807 1.625 11.375C1.625 6.89488 6.7275 3.25 13 3.25C19.2709 3.25 24.375 6.89488 24.375 11.375C24.375 15.8551 19.2717 19.5 13 19.5Z"
            fill="white" />
    </symbol>

    <symbol id="calendar" viewBox="0 0 26 26">
        <path
            d="M23.8339 2.4375H20.3125V0.8125C20.3125 0.363188 19.9493 0 19.5 0C19.0507 0 18.6875 0.363188 18.6875 0.8125V2.4375H13.8125V0.8125C13.8125 0.363188 13.4485 0 13 0C12.5515 0 12.1875 0.363188 12.1875 0.8125V2.4375H7.3125V0.8125C7.3125 0.363188 6.9485 0 6.5 0C6.0515 0 5.6875 0.363188 5.6875 0.8125V2.4375H2.16694C0.970125 2.4375 0 3.40681 0 4.60362V23.8331C0 25.0299 0.970125 26 2.16694 26H23.8339C25.0307 26 26 25.0299 26 23.8331V4.60362C26 3.40681 25.0307 2.4375 23.8339 2.4375ZM24.375 23.8331C24.375 24.1321 24.1321 24.375 23.8339 24.375H2.16694C1.86794 24.375 1.625 24.1321 1.625 23.8331V4.60362C1.625 4.30544 1.86794 4.0625 2.16694 4.0625H5.6875V5.6875C5.6875 6.13681 6.0515 6.5 6.5 6.5C6.9485 6.5 7.3125 6.13681 7.3125 5.6875V4.0625H12.1875V5.6875C12.1875 6.13681 12.5515 6.5 13 6.5C13.4485 6.5 13.8125 6.13681 13.8125 5.6875V4.0625H18.6875V5.6875C18.6875 6.13681 19.0507 6.5 19.5 6.5C19.9493 6.5 20.3125 6.13681 20.3125 5.6875V4.0625H23.8339C24.1321 4.0625 24.375 4.30544 24.375 4.60362V23.8331ZM5.6875 9.75H8.9375V12.1875H5.6875V9.75ZM5.6875 13.8125H8.9375V16.25H5.6875V13.8125ZM5.6875 17.875H8.9375V20.3125H5.6875V17.875ZM11.375 17.875H14.625V20.3125H11.375V17.875ZM11.375 13.8125H14.625V16.25H11.375V13.8125ZM11.375 9.75H14.625V12.1875H11.375V9.75ZM17.0625 17.875H20.3125V20.3125H17.0625V17.875ZM17.0625 13.8125H20.3125V16.25H17.0625V13.8125ZM17.0625 9.75H20.3125V12.1875H17.0625V9.75Z"
            fill="#BDBDBD" />
    </symbol>

    <symbol id="star" viewBox="0 0 26 26">
        <g clip-path="url(#clip0_16_354)">
            <path
                d="M25.9033 10.2026C25.6783 9.55338 25.1006 9.07806 24.4051 8.97487L17.6402 7.969L14.6998 1.86387C14.3902 1.22281 13.728 0.8125 13 0.8125C12.272 0.8125 11.6098 1.22281 11.3003 1.86387L8.35982 7.969L1.59413 8.97487C0.899443 9.07806 0.321756 9.55338 0.0975057 10.2026C-0.125932 10.8534 0.0430682 11.57 0.533818 12.0591L5.49169 17.0089L4.34201 23.8753C4.22501 24.5667 4.52482 25.2606 5.11226 25.6652C5.43482 25.8871 5.81426 26 6.19369 26C6.50569 26 6.81851 25.9236 7.10207 25.7717L13 22.5964L18.8988 25.7717C19.1823 25.9236 19.4951 26 19.8063 26C20.1858 26 20.5652 25.8871 20.8886 25.6652C21.476 25.2606 21.7742 24.5667 21.658 23.8753L20.5075 17.0089L25.467 12.0591C25.9569 11.5692 26.1251 10.8526 25.9033 10.2026ZM19.1653 15.7324C18.7493 16.1468 18.5608 16.731 18.6558 17.3038L19.8063 24.1702L13.9076 20.9966C13.6248 20.8439 13.3128 20.7683 12.9992 20.7683C12.6872 20.7683 12.3744 20.8447 12.0916 20.9966L6.19288 24.1702L7.34338 17.3038C7.43925 16.731 7.25075 16.1468 6.83475 15.7324L1.87688 10.7827L8.64175 9.77519C9.26007 9.68338 9.79225 9.29662 10.0579 8.74494L13 2.64144L15.9413 8.74575C16.2078 9.29744 16.7391 9.68337 17.3566 9.776L24.1231 10.7835L19.1653 15.7324Z"
                fill="#BDBDBD" />
        </g>
        <defs>
            <clipPath id="clip0_16_354">
                <rect width="26" height="26" fill="white" />
            </clipPath>
        </defs>
    </symbol>

    <symbol id="theme" viewBox="0 0 26 18">
        <path
            d="M13 0C8.06325 0 4.0625 4.00075 4.0625 8.9375C4.0625 12.2127 7.059 15.6837 8.15019 18.7322C9.77763 23.2781 9.59725 26 13 26C16.4531 26 16.2216 23.2911 17.8498 18.7509C18.9443 15.6959 21.9375 12.1875 21.9375 8.9375C21.9375 4.00075 17.9351 0 13 0ZM15.106 22.0805L11.0776 22.5834C10.9338 22.1674 10.7794 21.6807 10.5918 21.0454C10.5893 21.0373 10.5861 21.0283 10.5844 21.0202L15.6122 20.3921C15.5407 20.6318 15.4643 20.8837 15.3977 21.1096C15.2913 21.4744 15.1962 21.7913 15.106 22.0805ZM10.348 20.2378C10.2001 19.7486 10.0336 19.2335 9.84831 18.6875H16.1582C16.0582 18.9792 15.9583 19.2717 15.8722 19.5479L10.348 20.2378ZM13 24.375C12.1769 24.375 11.7983 24.2799 11.3774 23.3594L14.8208 22.9279C14.3219 24.2718 13.9587 24.375 13 24.375ZM16.796 17.0625H9.21294C8.80831 16.185 8.32244 15.3075 7.84306 14.4487C6.78275 12.5515 5.6875 10.5893 5.6875 8.9375C5.6875 4.90506 8.96756 1.625 13 1.625C17.0324 1.625 20.3125 4.90506 20.3125 8.9375C20.3125 10.5771 19.2156 12.5499 18.1545 14.4584C17.68 15.314 17.1974 16.1899 16.796 17.0625ZM13 4.0625C13.2234 4.0625 13.4062 4.2445 13.4062 4.46875C13.4062 4.693 13.2242 4.875 13 4.875C10.7599 4.875 8.9375 6.69744 8.9375 8.9375C8.9375 9.16175 8.7555 9.34375 8.53125 9.34375C8.307 9.34375 8.125 9.16175 8.125 8.9375C8.125 6.24894 10.3114 4.0625 13 4.0625Z"
            fill="#BDBDBD" />
    </symbol>

    <symbol id="search" viewBox="0 0 26 26">
        <g clip-path="url(#clip0_16_378)">
            <path
                d="M16.25 0.00408936C10.8656 0.00408936 6.5 4.36965 6.5 9.75409C6.5 11.4002 6.91194 12.9497 7.63344 14.3106L0.853938 21.0885L0.859625 21.0933C0.329875 21.6142 0 22.3357 0 23.1376C0 24.7212 1.28375 26.0049 2.86731 26.0049C3.66762 26.0049 4.38994 25.675 4.91075 25.1445L4.90912 25.1428L11.6862 18.3666C13.0479 19.0905 14.5998 19.5041 16.25 19.5041C21.6344 19.5041 26 15.1385 26 9.75409C26 4.36965 21.6344 0.00408936 16.25 0.00408936ZM3.89594 24.1288C3.63431 24.4002 3.27194 24.57 2.86731 24.57C2.07512 24.57 1.43325 23.929 1.43325 23.1368C1.43325 22.7322 1.60387 22.3706 1.87444 22.1082L1.86713 22.1017L8.42075 15.548C8.99356 16.3207 9.67606 17.0032 10.4471 17.5777L3.89594 24.1288ZM16.25 17.8799C11.7634 17.8799 8.125 14.2407 8.125 9.7549C8.125 5.26909 11.7634 1.6299 16.25 1.6299C20.7358 1.6299 24.375 5.26828 24.375 9.7549C24.375 14.2415 20.7358 17.8799 16.25 17.8799ZM16.25 4.06659C16.4734 4.06659 16.6562 4.24859 16.6562 4.47284C16.6562 4.69709 16.4734 4.87909 16.25 4.87909C13.5574 4.87909 11.375 7.06228 11.375 9.75409C11.375 9.97834 11.193 10.1603 10.9688 10.1603C10.7445 10.1603 10.5625 9.97834 10.5625 9.75409C10.5625 6.61296 13.1081 4.06659 16.25 4.06659Z"
                fill="#BDBDBD" />
        </g>
        <defs>
            <clipPath id="clip0_16_378">
                <rect width="26" height="26" fill="white" />
            </clipPath>
        </defs>

    </symbol>

    <symbol id="set" viewBox="0 0 26 26">
        <g clip-path="url(#clip0_16_380)">
            <path
                d="M6.5 4.89206V2.4375C6.5 1.09362 5.40637 0 4.0625 0C2.71863 0 1.625 1.09362 1.625 2.4375V4.89206C0.6435 5.6355 0 6.79981 0 8.125C0 9.45019 0.6435 10.6145 1.625 11.3563V23.5625C1.625 24.9064 2.71863 26 4.0625 26C5.40637 26 6.5 24.9064 6.5 23.5625V11.3563C7.4815 10.6153 8.125 9.45019 8.125 8.125C8.125 6.79981 7.4815 5.6355 6.5 4.89206ZM3.25 2.4375C3.25 1.98819 3.61319 1.625 4.0625 1.625C4.51181 1.625 4.875 1.98819 4.875 2.4375V4.14375C4.61256 4.09094 4.34119 4.0625 4.0625 4.0625C3.78381 4.0625 3.51244 4.09094 3.25 4.14375V2.4375ZM4.875 23.5625C4.875 24.0118 4.51181 24.375 4.0625 24.375C3.61319 24.375 3.25 24.0118 3.25 23.5625V12.1046C3.51244 12.1591 3.78381 12.1875 4.0625 12.1875C4.34119 12.1875 4.61256 12.1591 4.875 12.1046V23.5625ZM6.39031 8.8075C6.37731 8.85056 6.36594 8.89281 6.3505 8.93587C6.27331 9.15038 6.17419 9.3535 6.04338 9.53388C6.04013 9.53875 6.03525 9.542 6.032 9.54688C5.89062 9.74025 5.72244 9.91169 5.5315 10.0563C5.52825 10.0596 5.52581 10.0612 5.52338 10.0628C5.32756 10.2107 5.109 10.3293 4.87419 10.4122C4.61987 10.504 4.34931 10.5625 4.0625 10.5625C3.77569 10.5625 3.50513 10.504 3.25 10.4114C3.01519 10.3285 2.79662 10.2099 2.60081 10.062C2.59838 10.0604 2.59594 10.0588 2.59269 10.0555C2.40175 9.91088 2.23356 9.73944 2.09219 9.54606C2.08894 9.54119 2.08406 9.53794 2.08081 9.53306C1.95 9.35188 1.85088 9.14875 1.77369 8.93506C1.75825 8.892 1.74688 8.84975 1.73388 8.80669C1.66969 8.58975 1.625 8.36306 1.625 8.125C1.625 7.88531 1.66969 7.65863 1.73469 7.44088C1.74769 7.39781 1.75906 7.35556 1.7745 7.31413C1.85088 7.09963 1.95 6.8965 2.08162 6.7145C2.08488 6.70962 2.08975 6.70638 2.093 6.7015C2.23438 6.50975 2.40256 6.33669 2.5935 6.19206C2.59675 6.19044 2.59919 6.18719 2.60162 6.18556C2.79662 6.04012 3.01519 5.92069 3.25 5.837C3.50513 5.746 3.77569 5.6875 4.0625 5.6875C4.34931 5.6875 4.61987 5.746 4.875 5.837C5.10981 5.9215 5.32837 6.04012 5.52419 6.18637C5.52662 6.188 5.52906 6.19125 5.53231 6.19288C5.72325 6.3375 5.89144 6.51056 6.03281 6.70231C6.03606 6.70719 6.04094 6.71044 6.04419 6.71531C6.175 6.8965 6.27413 7.09963 6.3505 7.31413C6.36594 7.35556 6.37812 7.39781 6.39031 7.44088C6.45531 7.65863 6.5 7.88531 6.5 8.125C6.5 8.36306 6.45531 8.58975 6.39031 8.8075ZM24.375 4.89206V2.4375C24.375 1.09362 23.2814 0 21.9375 0C20.5936 0 19.5 1.09362 19.5 2.4375V4.89206C18.5177 5.6355 17.875 6.79981 17.875 8.125C17.875 9.45019 18.5177 10.6145 19.5 11.3563V23.5625C19.5 24.9064 20.5936 26 21.9375 26C23.2814 26 24.375 24.9064 24.375 23.5625V11.3563C25.3557 10.6153 26 9.45019 26 8.125C26 6.79981 25.3557 5.6355 24.375 4.89206ZM21.125 2.4375C21.125 1.98819 21.4882 1.625 21.9375 1.625C22.3868 1.625 22.75 1.98819 22.75 2.4375V4.14375C22.4867 4.09094 22.2154 4.0625 21.9375 4.0625C21.658 4.0625 21.3866 4.09094 21.125 4.14375V2.4375ZM22.75 23.5625C22.75 24.0118 22.3868 24.375 21.9375 24.375C21.4882 24.375 21.125 24.0118 21.125 23.5625V12.1046C21.3866 12.1591 21.658 12.1875 21.9375 12.1875C22.2154 12.1875 22.4867 12.1591 22.75 12.1046V23.5625ZM24.2653 8.8075C24.2523 8.85056 24.2401 8.89281 24.2255 8.93587C24.1475 9.15038 24.0492 9.3535 23.9176 9.53388C23.9143 9.53875 23.9094 9.542 23.9062 9.54688C23.7648 9.74025 23.5966 9.91169 23.4065 10.0563C23.4032 10.0596 23.4 10.0612 23.3984 10.0628C23.2017 10.2107 22.984 10.3293 22.7492 10.4122C22.4949 10.504 22.2235 10.5625 21.9375 10.5625C21.6499 10.5625 21.3801 10.504 21.125 10.4114C20.8902 10.3285 20.6708 10.2099 20.4758 10.062C20.4726 10.0604 20.4709 10.0588 20.4677 10.0555C20.2759 9.91088 20.1077 9.73944 19.9664 9.54606C19.9631 9.54119 19.9583 9.53794 19.955 9.53306C19.825 9.35188 19.7251 9.14875 19.6487 8.93506C19.6324 8.892 19.6219 8.84975 19.6089 8.80669C19.5447 8.58975 19.5 8.36306 19.5 8.125C19.5 7.88531 19.5447 7.65863 19.6097 7.44088C19.6227 7.39781 19.6332 7.35556 19.6495 7.31413C19.7259 7.09963 19.8258 6.8965 19.9558 6.7145C19.9591 6.70962 19.9639 6.70638 19.9672 6.7015C20.1086 6.50975 20.2767 6.33669 20.4685 6.19206C20.4718 6.19044 20.4734 6.18719 20.4766 6.18556C20.6716 6.03931 20.891 5.92069 21.1258 5.83619C21.3801 5.746 21.6499 5.6875 21.9375 5.6875C22.2235 5.6875 22.4949 5.746 22.75 5.837C22.9848 5.9215 23.2026 6.04012 23.3992 6.18637C23.4008 6.188 23.4041 6.19125 23.4073 6.19288C23.5974 6.3375 23.7656 6.51056 23.907 6.70231C23.9102 6.70719 23.9151 6.71044 23.9184 6.71531C24.05 6.89813 24.1483 7.10125 24.2263 7.31494C24.2409 7.35638 24.2531 7.39944 24.2661 7.44169C24.3303 7.65863 24.375 7.88531 24.375 8.125C24.375 8.36306 24.3303 8.58975 24.2653 8.8075ZM15.4375 14.6421V2.4375C15.4375 1.09362 14.3439 0 13 0C11.6561 0 10.5625 1.09362 10.5625 2.4375V14.6421C9.581 15.3847 8.9375 16.5498 8.9375 17.875C8.9375 19.2002 9.581 20.3645 10.5625 21.1063V23.5625C10.5625 24.9064 11.6561 26 13 26C14.3439 26 15.4375 24.9064 15.4375 23.5625V21.1063C16.4182 20.3653 17.0625 19.2002 17.0625 17.875C17.0625 16.5498 16.4182 15.3855 15.4375 14.6421ZM12.1875 2.4375C12.1875 1.98819 12.5507 1.625 13 1.625C13.4493 1.625 13.8125 1.98819 13.8125 2.4375V13.8938C13.5492 13.8418 13.2779 13.8125 13 13.8125C12.7213 13.8125 12.4499 13.8409 12.1875 13.8938V2.4375ZM13.8125 23.5625C13.8125 24.0118 13.4493 24.375 13 24.375C12.5507 24.375 12.1875 24.0118 12.1875 23.5625V21.8546C12.4499 21.9091 12.7213 21.9375 13 21.9375C13.2779 21.9375 13.5492 21.9091 13.8125 21.8546V23.5625ZM15.3278 18.5575C15.3148 18.6006 15.3026 18.6428 15.288 18.6859C15.21 18.9004 15.1117 19.1035 14.9801 19.2839C14.9768 19.2887 14.9719 19.292 14.9687 19.2969C14.8273 19.4902 14.6591 19.6617 14.469 19.8063C14.4658 19.8096 14.4625 19.8112 14.4609 19.8128C14.2642 19.9607 14.0465 20.0793 13.8117 20.1622C13.5574 20.254 13.286 20.3125 13 20.3125C12.714 20.3125 12.4426 20.254 12.1875 20.1614C11.9527 20.0785 11.7341 19.9599 11.5383 19.812C11.5359 19.8104 11.5334 19.8088 11.5302 19.8055C11.3392 19.6609 11.1711 19.4894 11.0297 19.2961C11.0264 19.2912 11.0216 19.2879 11.0183 19.2831C10.8875 19.1019 10.7884 18.8988 10.7112 18.6851C10.6957 18.642 10.6844 18.5998 10.6714 18.5567C10.6072 18.3398 10.5625 18.1131 10.5625 17.875C10.5625 17.6353 10.6072 17.4086 10.6722 17.1909C10.6852 17.1478 10.6966 17.1056 10.712 17.0641C10.7892 16.8496 10.8883 16.6465 11.0191 16.4645C11.0224 16.4596 11.0273 16.4564 11.0305 16.4515C11.1719 16.2597 11.3401 16.0867 11.531 15.9421C11.5343 15.9404 11.5367 15.9372 11.5391 15.9356C11.7349 15.7893 11.9535 15.6707 12.1883 15.5862C12.4426 15.496 12.7132 15.4375 13 15.4375C13.286 15.4375 13.5574 15.496 13.8125 15.587C14.0473 15.6715 14.2651 15.7901 14.4617 15.9364C14.4633 15.938 14.4666 15.9412 14.4698 15.9429C14.6599 16.0875 14.8281 16.2606 14.9695 16.4523C14.9727 16.4572 14.9776 16.4604 14.9809 16.4653C15.1125 16.6481 15.2108 16.8512 15.2888 17.0649C15.3034 17.1064 15.3156 17.1494 15.3286 17.1917C15.3928 17.4086 15.4375 17.6353 15.4375 17.875C15.4375 18.1131 15.3928 18.3398 15.3278 18.5575Z"
                fill="white" />
        </g>
        <defs>
            <clipPath id="clip0_16_380">
                <rect width="26" height="26" fill="white" />
            </clipPath>
        </defs>

    </symbol>

</svg>