<svg xmlns="http://www.w3.org/2000/svg" style="display:none">

    <symbol id="mail" viewBox="0 0 26 18">
        <path
            d="M22.75 0.0625H3.25C1.45519 0.0625 0 1.5185 0 3.3125V13.875C0 15.6698 1.45519 17.125 3.25 17.125H22.75C24.5448 17.125 26 15.6698 26 13.875V3.3125C26 1.5185 24.5448 0.0625 22.75 0.0625ZM1.625 4.32812L7.31169 8.59375L1.625 12.8594V4.32812ZM24.375 13.875C24.375 14.772 23.6454 15.5 22.75 15.5H3.25C2.35381 15.5 1.625 14.772 1.625 13.875L7.9885 9.10156L11.5375 11.7641C11.9706 12.0875 12.4849 12.2516 13 12.2516C13.5143 12.2516 14.0286 12.0883 14.4617 11.7641L18.0115 9.10156L24.375 13.875ZM24.375 12.8594L18.6875 8.59375L24.375 4.32812V12.8594ZM13.9742 11.1141C13.6906 11.327 13.3542 11.4391 13 11.4391C12.6458 11.4391 12.3086 11.3262 12.025 11.1141L1.625 3.3125C1.625 2.41631 2.35381 1.6875 3.25 1.6875H22.75C23.6454 1.6875 24.375 2.41631 24.375 3.3125L13.9742 11.1141Z"
            fill="#BDBDBD" />

    </symbol>

    <symbol id="bubble" viewBox="0 0 26 26">
        <path
            d="M13 5.6875C13.2242 5.6875 13.4062 5.8695 13.4062 6.09375C13.4062 6.318 13.2234 6.5 13 6.5C8.67181 6.5 4.875 8.77825 4.875 11.375C4.875 11.5992 4.693 11.7812 4.46875 11.7812C4.2445 11.7812 4.0625 11.5992 4.0625 11.375C4.0625 8.29238 8.15506 5.6875 13 5.6875ZM13 1.625C5.81994 1.625 0 5.99056 0 11.375C0 14.7282 2.25794 17.6849 5.694 19.4399C5.694 19.4618 5.6875 19.4764 5.6875 19.5C5.6875 20.9568 4.59956 22.5249 4.121 23.348C4.12181 23.348 4.12262 23.348 4.12262 23.348C4.08444 23.4374 4.0625 23.5357 4.0625 23.6389C4.0625 24.0451 4.39156 24.375 4.79862 24.375C4.875 24.375 5.00906 24.3547 5.00581 24.3636C7.54487 23.9476 9.93687 21.6149 10.4926 20.9389C11.3043 21.0584 12.1412 21.125 13 21.125C20.1784 21.125 26 16.7594 26 11.375C26 5.99056 20.1793 1.625 13 1.625ZM13 19.5C12.2549 19.5 11.4904 19.4431 10.7283 19.3318C10.6494 19.3188 10.5706 19.3147 10.4926 19.3147C10.01 19.3147 9.54769 19.5292 9.2365 19.9079C8.88875 20.3312 7.89913 21.2761 6.72994 21.9708C7.04681 21.2436 7.29462 20.4287 7.31169 19.5886C7.31656 19.5366 7.319 19.4837 7.319 19.4391C7.319 18.8281 6.97694 18.2699 6.43338 17.992C3.42225 16.4547 1.625 13.9807 1.625 11.375C1.625 6.89488 6.7275 3.25 13 3.25C19.2709 3.25 24.375 6.89488 24.375 11.375C24.375 15.8551 19.2717 19.5 13 19.5Z"
            fill="white" />
    </symbol>

    <symbol id="calendar" viewBox="0 0 26 26">
        <path
            d="M23.8339 2.4375H20.3125V0.8125C20.3125 0.363188 19.9493 0 19.5 0C19.0507 0 18.6875 0.363188 18.6875 0.8125V2.4375H13.8125V0.8125C13.8125 0.363188 13.4485 0 13 0C12.5515 0 12.1875 0.363188 12.1875 0.8125V2.4375H7.3125V0.8125C7.3125 0.363188 6.9485 0 6.5 0C6.0515 0 5.6875 0.363188 5.6875 0.8125V2.4375H2.16694C0.970125 2.4375 0 3.40681 0 4.60362V23.8331C0 25.0299 0.970125 26 2.16694 26H23.8339C25.0307 26 26 25.0299 26 23.8331V4.60362C26 3.40681 25.0307 2.4375 23.8339 2.4375ZM24.375 23.8331C24.375 24.1321 24.1321 24.375 23.8339 24.375H2.16694C1.86794 24.375 1.625 24.1321 1.625 23.8331V4.60362C1.625 4.30544 1.86794 4.0625 2.16694 4.0625H5.6875V5.6875C5.6875 6.13681 6.0515 6.5 6.5 6.5C6.9485 6.5 7.3125 6.13681 7.3125 5.6875V4.0625H12.1875V5.6875C12.1875 6.13681 12.5515 6.5 13 6.5C13.4485 6.5 13.8125 6.13681 13.8125 5.6875V4.0625H18.6875V5.6875C18.6875 6.13681 19.0507 6.5 19.5 6.5C19.9493 6.5 20.3125 6.13681 20.3125 5.6875V4.0625H23.8339C24.1321 4.0625 24.375 4.30544 24.375 4.60362V23.8331ZM5.6875 9.75H8.9375V12.1875H5.6875V9.75ZM5.6875 13.8125H8.9375V16.25H5.6875V13.8125ZM5.6875 17.875H8.9375V20.3125H5.6875V17.875ZM11.375 17.875H14.625V20.3125H11.375V17.875ZM11.375 13.8125H14.625V16.25H11.375V13.8125ZM11.375 9.75H14.625V12.1875H11.375V9.75ZM17.0625 17.875H20.3125V20.3125H17.0625V17.875ZM17.0625 13.8125H20.3125V16.25H17.0625V13.8125ZM17.0625 9.75H20.3125V12.1875H17.0625V9.75Z"
            fill="#BDBDBD" />
    </symbol>

    <symbol id="star" viewBox="0 0 26 26">
        <g clip-path="url(#clip0_16_354)">
            <path
                d="M25.9033 10.2026C25.6783 9.55338 25.1006 9.07806 24.4051 8.97487L17.6402 7.969L14.6998 1.86387C14.3902 1.22281 13.728 0.8125 13 0.8125C12.272 0.8125 11.6098 1.22281 11.3003 1.86387L8.35982 7.969L1.59413 8.97487C0.899443 9.07806 0.321756 9.55338 0.0975057 10.2026C-0.125932 10.8534 0.0430682 11.57 0.533818 12.0591L5.49169 17.0089L4.34201 23.8753C4.22501 24.5667 4.52482 25.2606 5.11226 25.6652C5.43482 25.8871 5.81426 26 6.19369 26C6.50569 26 6.81851 25.9236 7.10207 25.7717L13 22.5964L18.8988 25.7717C19.1823 25.9236 19.4951 26 19.8063 26C20.1858 26 20.5652 25.8871 20.8886 25.6652C21.476 25.2606 21.7742 24.5667 21.658 23.8753L20.5075 17.0089L25.467 12.0591C25.9569 11.5692 26.1251 10.8526 25.9033 10.2026ZM19.1653 15.7324C18.7493 16.1468 18.5608 16.731 18.6558 17.3038L19.8063 24.1702L13.9076 20.9966C13.6248 20.8439 13.3128 20.7683 12.9992 20.7683C12.6872 20.7683 12.3744 20.8447 12.0916 20.9966L6.19288 24.1702L7.34338 17.3038C7.43925 16.731 7.25075 16.1468 6.83475 15.7324L1.87688 10.7827L8.64175 9.77519C9.26007 9.68338 9.79225 9.29662 10.0579 8.74494L13 2.64144L15.9413 8.74575C16.2078 9.29744 16.7391 9.68337 17.3566 9.776L24.1231 10.7835L19.1653 15.7324Z"
                fill="#BDBDBD" />
        </g>
        <defs>
            <clipPath id="clip0_16_354">
                <rect width="26" height="26" fill="white" />
            </clipPath>
        </defs>
    </symbol>
    
</svg>