<svg width="32" height="32" viewBox="0 0 32 32" fill="none" xmlns="http://www.w3.org/2000/svg">
    <path
        d="M16.002 17.746C19.311 17.746 22.002 15.054 22.002 11.746C22.002 8.438 19.311 5.746 16.002 5.746C12.693 5.746 10.002 8.437 10.002 11.746C10.002 15.055 12.693 17.746 16.002 17.746ZM16.002 6.746C18.76 6.746 21.002 8.988 21.002 11.746C21.002 14.504 18.76 16.746 16.002 16.746C13.244 16.746 11.002 14.504 11.002 11.746C11.002 8.988 13.244 6.746 16.002 6.746ZM16 0C9.382 0 4 5.316 4 12.001C4 19.001 10.001 26.162 14.376 31.195C14.392 31.215 15.094 32 15.962 32C15.964 32 16.035 32 16.039 32C16.906 32 17.609 31.215 17.625 31.195C22.002 26.162 28.002 19.002 28.002 12.001C28.002 5.316 22.619 0 16 0V0ZM16.117 29.883C16.096 29.903 16.035 29.947 15.982 29.981C15.972 29.954 15.898 29.895 15.853 29.848C12.188 25.631 6 18.514 6 12.001C6 6.487 10.487 2 16 2C21.516 2 26.002 6.487 26.002 12.002C26.002 18.514 19.814 25.631 16.117 29.883Z"
        fill="#BDBDBD" />
</svg>
    