<svg width="66" height="32" viewBox="0 0 66 32" fill="none" xmlns="http://www.w3.org/2000/svg">
    <path
        d="M15.962 31.9903C24.5889 31.9903 31.5824 24.8312 31.5824 16C31.5824 7.1688 24.5889 0.00970459 15.962 0.00970459C7.33514 0.00970459 0.341675 7.1688 0.341675 16C0.341675 24.8312 7.33514 31.9903 15.962 31.9903Z"
        fill="#9E8CFC" />
    <path
        d="M11.0497 30.179C11.6887 30.3997 13.8346 31.1058 13.9259 30.4154C13.9754 30.0365 12.8429 29.6483 11.3096 28.8264C9.12893 27.6602 7.13397 26.1688 5.39166 24.4022C2.84854 21.879 1.38622 18.4464 1.31948 14.8431C1.18952 10.0056 3.05851 6.09492 6.13276 3.57129C2.37333 6.50737 0.122496 11.002 0.00592228 15.8059C-0.0853614 19.3048 0.881627 22.2527 2.69802 24.936C3.26205 25.6732 3.92137 26.3303 4.6583 26.8898C6.39888 28.2221 8.94399 29.4542 11.0497 30.1774"
        fill="white" />
    <path
        d="M31.7974 12.3351C30.8288 7.72621 27.818 4.49966 23.7907 2.22025C26.8773 4.43861 31.2095 9.15554 28.6489 13.3167C26.4828 16.6497 21.2224 15.9969 18.3369 14.4126C14.9145 12.5339 10.6319 8.30702 14.8557 4.1756C17.5943 1.50168 26.3049 4.49966 24.7716 8.49645C23.8774 10.8213 20.3962 10.3046 18.8305 9.16806C17.6763 8.32894 16.7046 6.88709 17.2198 5.39827C17.3838 4.92079 17.3606 4.18029 16.6938 4.7251C16.2018 5.13213 15.9465 5.80218 15.8599 6.42839C15.1311 11.64 24.3075 15.6807 27.0305 10.6381C28.4431 8.02053 26.1533 4.21943 23.2709 2.6633C21.1048 1.48915 18.8506 0.664118 16.0873 0.864506C11.6686 1.17761 7.96151 3.97991 7.49581 8.54812C7.03165 13.0881 10.0316 17.1742 13.5639 19.618C17.2771 22.1854 22.2683 23.8778 26.8356 22.3467C30.9294 20.9737 32.6205 16.2192 31.7974 12.3383"
        fill="white" />
    <rect x="46" y="6" width="20" height="20" rx="10" fill="#283046" />
    <path
        d="M57.0417 16L54.6438 13.3896C54.4396 13.1833 54.4396 12.849 54.6438 12.6417C54.8479 12.4365 55.1802 12.4365 55.3833 12.6417L58.3073 15.625C58.5115 15.8323 58.5115 16.1667 58.3073 16.3719L55.3833 19.3552C55.1802 19.5625 54.8479 19.5615 54.6438 19.3552C54.4396 19.15 54.4396 18.8156 54.6438 18.6083L57.0417 16ZM56 6C61.5229 6 66 10.4771 66 16C66 21.524 61.5229 26 56 26C50.4771 26 46 21.524 46 16C46 10.4771 50.4771 6 56 6ZM56 24.7021C60.8052 24.7021 64.7021 20.8062 64.7021 16C64.7021 11.1938 60.8052 7.29792 56 7.29792C51.1927 7.29792 47.2979 11.1938 47.2979 16C47.2979 20.8062 51.1927 24.7021 56 24.7021Z"
        fill="#BDBDBD" />
</svg>
    