<svg width="26" height="18" viewBox="0 0 26 18" fill="none" xmlns="http://www.w3.org/2000/svg">
    <path
        d="M22.75 0.0625H3.25C1.45519 0.0625 0 1.5185 0 3.3125V13.875C0 15.6698 1.45519 17.125 3.25 17.125H22.75C24.5448 17.125 26 15.6698 26 13.875V3.3125C26 1.5185 24.5448 0.0625 22.75 0.0625ZM1.625 4.32812L7.31169 8.59375L1.625 12.8594V4.32812ZM24.375 13.875C24.375 14.772 23.6454 15.5 22.75 15.5H3.25C2.35381 15.5 1.625 14.772 1.625 13.875L7.9885 9.10156L11.5375 11.7641C11.9706 12.0875 12.4849 12.2516 13 12.2516C13.5143 12.2516 14.0286 12.0883 14.4617 11.7641L18.0115 9.10156L24.375 13.875ZM24.375 12.8594L18.6875 8.59375L24.375 4.32812V12.8594ZM13.9742 11.1141C13.6906 11.327 13.3542 11.4391 13 11.4391C12.6458 11.4391 12.3086 11.3262 12.025 11.1141L1.625 3.3125C1.625 2.41631 2.35381 1.6875 3.25 1.6875H22.75C23.6454 1.6875 24.375 2.41631 24.375 3.3125L13.9742 11.1141Z"
        fill="#BDBDBD" />
</svg>
    