<svg width="32" height="32" viewBox="0 0 32 32" fill="none" xmlns="http://www.w3.org/2000/svg">
    <path
        d="M29 0H7C5.343 0 4 1.342 4 3V5H3C1.343 5 0 6.342 0 8V28C0 30.209 1.791 32 4 32H28C30.209 32 32 30.209 32 28V3C32 1.342 30.656 0 29 0ZM30 28C30 29.102 29.102 30 28 30H4C2.897 30 2 29.102 2 28V8C2 7.448 2.448 7 3 7H4V27C4 27.553 4.447 28 5 28C5.553 28 6 27.553 6 27V3C6 2.448 6.448 2 7 2H29C29.551 2 30 2.448 30 3V28ZM19.498 13.005C19.223 13.005 18.998 12.781 18.998 12.505C18.998 12.229 19.223 12.005 19.498 12.005H27.498C27.775 12.005 27.998 12.229 27.998 12.505C27.998 12.781 27.775 13.005 27.498 13.005H19.498ZM19.498 10.005C19.223 10.005 18.998 9.781 18.998 9.505C18.998 9.229 19.223 9.005 19.498 9.005H27.498C27.775 9.005 27.998 9.229 27.998 9.505C27.998 9.781 27.775 10.005 27.498 10.005H19.498ZM19.498 7.005C19.223 7.005 18.998 6.781 18.998 6.505C18.998 6.229 19.223 6.005 19.498 6.005H27.498C27.775 6.005 27.998 6.229 27.998 6.505C27.998 6.781 27.775 7.005 27.498 7.005H19.498ZM16.5 27.004C16.776 27.004 17 27.229 17 27.504C17 27.781 16.775 28.004 16.5 28.004H8.5C8.224 28.004 8 27.781 8 27.504C8 27.229 8.224 27.004 8.5 27.004H16.5ZM16.5 24.004C16.776 24.004 17 24.229 17 24.504C17 24.781 16.775 25.004 16.5 25.004H8.5C8.224 25.004 8 24.781 8 24.504C8 24.229 8.224 24.004 8.5 24.004H16.5ZM16.5 21.004C16.776 21.004 17 21.229 17 21.504C17 21.781 16.775 22.004 16.5 22.004H8.5C8.224 22.004 8 21.781 8 21.504C8 21.229 8.224 21.004 8.5 21.004H16.5ZM27.5 27.004C27.775 27.004 28 27.229 28 27.504C28 27.781 27.775 28.004 27.5 28.004H19.5C19.223 28.004 19 27.781 19 27.504C19 27.229 19.223 27.004 19.5 27.004H27.5ZM27.5 24.004C27.775 24.004 28 24.229 28 24.504C28 24.781 27.775 25.004 27.5 25.004H19.5C19.223 25.004 19 24.781 19 24.504C19 24.229 19.223 24.004 19.5 24.004H27.5ZM27.5 21.004C27.775 21.004 28 21.229 28 21.504C28 21.781 27.775 22.004 27.5 22.004H19.5C19.223 22.004 19 21.781 19 21.504C19 21.229 19.223 21.004 19.5 21.004H27.5ZM27.5 15.004C27.775 15.004 28 15.228 28 15.504C28 15.78 27.775 16.004 27.5 16.004H8.5C8.224 16.004 8 15.78 8 15.504C8 15.228 8.224 15.004 8.5 15.004H27.5ZM27.5 18.004C27.775 18.004 28 18.229 28 18.504C28 18.781 27.775 19.004 27.5 19.004H8.5C8.224 19.004 8 18.781 8 18.504C8 18.229 8.224 18.004 8.5 18.004H27.5ZM9 13H16C16.553 13 17 12.553 17 12V5.004C17 4.451 16.553 4.004 16 4.004H9C8.447 4.004 8 4.451 8 5.004V12C8 12.552 8.447 13 9 13ZM10 6H15V11H10V6Z"
        fill="#BDBDBD" />
</svg>
    