<svg width="26" height="26" viewBox="0 0 26 26" fill="none" xmlns="http://www.w3.org/2000/svg">
    <g clip-path="url(#clip0_16_378)">
        <path
            d="M16.25 0.00408936C10.8656 0.00408936 6.5 4.36965 6.5 9.75409C6.5 11.4002 6.91194 12.9497 7.63344 14.3106L0.853938 21.0885L0.859625 21.0933C0.329875 21.6142 0 22.3357 0 23.1376C0 24.7212 1.28375 26.0049 2.86731 26.0049C3.66762 26.0049 4.38994 25.675 4.91075 25.1445L4.90912 25.1428L11.6862 18.3666C13.0479 19.0905 14.5998 19.5041 16.25 19.5041C21.6344 19.5041 26 15.1385 26 9.75409C26 4.36965 21.6344 0.00408936 16.25 0.00408936ZM3.89594 24.1288C3.63431 24.4002 3.27194 24.57 2.86731 24.57C2.07512 24.57 1.43325 23.929 1.43325 23.1368C1.43325 22.7322 1.60387 22.3706 1.87444 22.1082L1.86713 22.1017L8.42075 15.548C8.99356 16.3207 9.67606 17.0032 10.4471 17.5777L3.89594 24.1288ZM16.25 17.8799C11.7634 17.8799 8.125 14.2407 8.125 9.7549C8.125 5.26909 11.7634 1.6299 16.25 1.6299C20.7358 1.6299 24.375 5.26828 24.375 9.7549C24.375 14.2415 20.7358 17.8799 16.25 17.8799ZM16.25 4.06659C16.4734 4.06659 16.6562 4.24859 16.6562 4.47284C16.6562 4.69709 16.4734 4.87909 16.25 4.87909C13.5574 4.87909 11.375 7.06228 11.375 9.75409C11.375 9.97834 11.193 10.1603 10.9688 10.1603C10.7445 10.1603 10.5625 9.97834 10.5625 9.75409C10.5625 6.61296 13.1081 4.06659 16.25 4.06659Z"
            fill="#BDBDBD" />
    </g>
    <defs>
        <clipPath id="clip0_16_378">
            <rect width="26" height="26" fill="white" />
        </clipPath>
    </defs>
</svg>
    