<svg width="26" height="26" viewBox="0 0 26 26" fill="none" xmlns="http://www.w3.org/2000/svg">
    <g clip-path="url(#clip0_16_380)">
        <path
            d="M6.5 4.89206V2.4375C6.5 1.09362 5.40637 0 4.0625 0C2.71863 0 1.625 1.09362 1.625 2.4375V4.89206C0.6435 5.6355 0 6.79981 0 8.125C0 9.45019 0.6435 10.6145 1.625 11.3563V23.5625C1.625 24.9064 2.71863 26 4.0625 26C5.40637 26 6.5 24.9064 6.5 23.5625V11.3563C7.4815 10.6153 8.125 9.45019 8.125 8.125C8.125 6.79981 7.4815 5.6355 6.5 4.89206ZM3.25 2.4375C3.25 1.98819 3.61319 1.625 4.0625 1.625C4.51181 1.625 4.875 1.98819 4.875 2.4375V4.14375C4.61256 4.09094 4.34119 4.0625 4.0625 4.0625C3.78381 4.0625 3.51244 4.09094 3.25 4.14375V2.4375ZM4.875 23.5625C4.875 24.0118 4.51181 24.375 4.0625 24.375C3.61319 24.375 3.25 24.0118 3.25 23.5625V12.1046C3.51244 12.1591 3.78381 12.1875 4.0625 12.1875C4.34119 12.1875 4.61256 12.1591 4.875 12.1046V23.5625ZM6.39031 8.8075C6.37731 8.85056 6.36594 8.89281 6.3505 8.93587C6.27331 9.15038 6.17419 9.3535 6.04338 9.53388C6.04013 9.53875 6.03525 9.542 6.032 9.54688C5.89062 9.74025 5.72244 9.91169 5.5315 10.0563C5.52825 10.0596 5.52581 10.0612 5.52338 10.0628C5.32756 10.2107 5.109 10.3293 4.87419 10.4122C4.61987 10.504 4.34931 10.5625 4.0625 10.5625C3.77569 10.5625 3.50513 10.504 3.25 10.4114C3.01519 10.3285 2.79662 10.2099 2.60081 10.062C2.59838 10.0604 2.59594 10.0588 2.59269 10.0555C2.40175 9.91088 2.23356 9.73944 2.09219 9.54606C2.08894 9.54119 2.08406 9.53794 2.08081 9.53306C1.95 9.35188 1.85088 9.14875 1.77369 8.93506C1.75825 8.892 1.74688 8.84975 1.73388 8.80669C1.66969 8.58975 1.625 8.36306 1.625 8.125C1.625 7.88531 1.66969 7.65863 1.73469 7.44088C1.74769 7.39781 1.75906 7.35556 1.7745 7.31413C1.85088 7.09963 1.95 6.8965 2.08162 6.7145C2.08488 6.70962 2.08975 6.70638 2.093 6.7015C2.23438 6.50975 2.40256 6.33669 2.5935 6.19206C2.59675 6.19044 2.59919 6.18719 2.60162 6.18556C2.79662 6.04012 3.01519 5.92069 3.25 5.837C3.50513 5.746 3.77569 5.6875 4.0625 5.6875C4.34931 5.6875 4.61987 5.746 4.875 5.837C5.10981 5.9215 5.32837 6.04012 5.52419 6.18637C5.52662 6.188 5.52906 6.19125 5.53231 6.19288C5.72325 6.3375 5.89144 6.51056 6.03281 6.70231C6.03606 6.70719 6.04094 6.71044 6.04419 6.71531C6.175 6.8965 6.27413 7.09963 6.3505 7.31413C6.36594 7.35556 6.37812 7.39781 6.39031 7.44088C6.45531 7.65863 6.5 7.88531 6.5 8.125C6.5 8.36306 6.45531 8.58975 6.39031 8.8075ZM24.375 4.89206V2.4375C24.375 1.09362 23.2814 0 21.9375 0C20.5936 0 19.5 1.09362 19.5 2.4375V4.89206C18.5177 5.6355 17.875 6.79981 17.875 8.125C17.875 9.45019 18.5177 10.6145 19.5 11.3563V23.5625C19.5 24.9064 20.5936 26 21.9375 26C23.2814 26 24.375 24.9064 24.375 23.5625V11.3563C25.3557 10.6153 26 9.45019 26 8.125C26 6.79981 25.3557 5.6355 24.375 4.89206ZM21.125 2.4375C21.125 1.98819 21.4882 1.625 21.9375 1.625C22.3868 1.625 22.75 1.98819 22.75 2.4375V4.14375C22.4867 4.09094 22.2154 4.0625 21.9375 4.0625C21.658 4.0625 21.3866 4.09094 21.125 4.14375V2.4375ZM22.75 23.5625C22.75 24.0118 22.3868 24.375 21.9375 24.375C21.4882 24.375 21.125 24.0118 21.125 23.5625V12.1046C21.3866 12.1591 21.658 12.1875 21.9375 12.1875C22.2154 12.1875 22.4867 12.1591 22.75 12.1046V23.5625ZM24.2653 8.8075C24.2523 8.85056 24.2401 8.89281 24.2255 8.93587C24.1475 9.15038 24.0492 9.3535 23.9176 9.53388C23.9143 9.53875 23.9094 9.542 23.9062 9.54688C23.7648 9.74025 23.5966 9.91169 23.4065 10.0563C23.4032 10.0596 23.4 10.0612 23.3984 10.0628C23.2017 10.2107 22.984 10.3293 22.7492 10.4122C22.4949 10.504 22.2235 10.5625 21.9375 10.5625C21.6499 10.5625 21.3801 10.504 21.125 10.4114C20.8902 10.3285 20.6708 10.2099 20.4758 10.062C20.4726 10.0604 20.4709 10.0588 20.4677 10.0555C20.2759 9.91088 20.1077 9.73944 19.9664 9.54606C19.9631 9.54119 19.9583 9.53794 19.955 9.53306C19.825 9.35188 19.7251 9.14875 19.6487 8.93506C19.6324 8.892 19.6219 8.84975 19.6089 8.80669C19.5447 8.58975 19.5 8.36306 19.5 8.125C19.5 7.88531 19.5447 7.65863 19.6097 7.44088C19.6227 7.39781 19.6332 7.35556 19.6495 7.31413C19.7259 7.09963 19.8258 6.8965 19.9558 6.7145C19.9591 6.70962 19.9639 6.70638 19.9672 6.7015C20.1086 6.50975 20.2767 6.33669 20.4685 6.19206C20.4718 6.19044 20.4734 6.18719 20.4766 6.18556C20.6716 6.03931 20.891 5.92069 21.1258 5.83619C21.3801 5.746 21.6499 5.6875 21.9375 5.6875C22.2235 5.6875 22.4949 5.746 22.75 5.837C22.9848 5.9215 23.2026 6.04012 23.3992 6.18637C23.4008 6.188 23.4041 6.19125 23.4073 6.19288C23.5974 6.3375 23.7656 6.51056 23.907 6.70231C23.9102 6.70719 23.9151 6.71044 23.9184 6.71531C24.05 6.89813 24.1483 7.10125 24.2263 7.31494C24.2409 7.35638 24.2531 7.39944 24.2661 7.44169C24.3303 7.65863 24.375 7.88531 24.375 8.125C24.375 8.36306 24.3303 8.58975 24.2653 8.8075ZM15.4375 14.6421V2.4375C15.4375 1.09362 14.3439 0 13 0C11.6561 0 10.5625 1.09362 10.5625 2.4375V14.6421C9.581 15.3847 8.9375 16.5498 8.9375 17.875C8.9375 19.2002 9.581 20.3645 10.5625 21.1063V23.5625C10.5625 24.9064 11.6561 26 13 26C14.3439 26 15.4375 24.9064 15.4375 23.5625V21.1063C16.4182 20.3653 17.0625 19.2002 17.0625 17.875C17.0625 16.5498 16.4182 15.3855 15.4375 14.6421ZM12.1875 2.4375C12.1875 1.98819 12.5507 1.625 13 1.625C13.4493 1.625 13.8125 1.98819 13.8125 2.4375V13.8938C13.5492 13.8418 13.2779 13.8125 13 13.8125C12.7213 13.8125 12.4499 13.8409 12.1875 13.8938V2.4375ZM13.8125 23.5625C13.8125 24.0118 13.4493 24.375 13 24.375C12.5507 24.375 12.1875 24.0118 12.1875 23.5625V21.8546C12.4499 21.9091 12.7213 21.9375 13 21.9375C13.2779 21.9375 13.5492 21.9091 13.8125 21.8546V23.5625ZM15.3278 18.5575C15.3148 18.6006 15.3026 18.6428 15.288 18.6859C15.21 18.9004 15.1117 19.1035 14.9801 19.2839C14.9768 19.2887 14.9719 19.292 14.9687 19.2969C14.8273 19.4902 14.6591 19.6617 14.469 19.8063C14.4658 19.8096 14.4625 19.8112 14.4609 19.8128C14.2642 19.9607 14.0465 20.0793 13.8117 20.1622C13.5574 20.254 13.286 20.3125 13 20.3125C12.714 20.3125 12.4426 20.254 12.1875 20.1614C11.9527 20.0785 11.7341 19.9599 11.5383 19.812C11.5359 19.8104 11.5334 19.8088 11.5302 19.8055C11.3392 19.6609 11.1711 19.4894 11.0297 19.2961C11.0264 19.2912 11.0216 19.2879 11.0183 19.2831C10.8875 19.1019 10.7884 18.8988 10.7112 18.6851C10.6957 18.642 10.6844 18.5998 10.6714 18.5567C10.6072 18.3398 10.5625 18.1131 10.5625 17.875C10.5625 17.6353 10.6072 17.4086 10.6722 17.1909C10.6852 17.1478 10.6966 17.1056 10.712 17.0641C10.7892 16.8496 10.8883 16.6465 11.0191 16.4645C11.0224 16.4596 11.0273 16.4564 11.0305 16.4515C11.1719 16.2597 11.3401 16.0867 11.531 15.9421C11.5343 15.9404 11.5367 15.9372 11.5391 15.9356C11.7349 15.7893 11.9535 15.6707 12.1883 15.5862C12.4426 15.496 12.7132 15.4375 13 15.4375C13.286 15.4375 13.5574 15.496 13.8125 15.587C14.0473 15.6715 14.2651 15.7901 14.4617 15.9364C14.4633 15.938 14.4666 15.9412 14.4698 15.9429C14.6599 16.0875 14.8281 16.2606 14.9695 16.4523C14.9727 16.4572 14.9776 16.4604 14.9809 16.4653C15.1125 16.6481 15.2108 16.8512 15.2888 17.0649C15.3034 17.1064 15.3156 17.1494 15.3286 17.1917C15.3928 17.4086 15.4375 17.6353 15.4375 17.875C15.4375 18.1131 15.3928 18.3398 15.3278 18.5575Z"
            fill="#BDBDBD" />
    </g>
    <defs>
        <clipPath id="clip0_16_380">
            <rect width="26" height="26" fill="white" />
        </clipPath>
    </defs>
</svg>
    