<svg width="26" height="26" viewBox="0 0 26 26" fill="none" xmlns="http://www.w3.org/2000/svg">
    <g clip-path="url(#clip0_16_354)">
        <path
            d="M25.9033 10.2026C25.6783 9.55338 25.1006 9.07806 24.4051 8.97487L17.6402 7.969L14.6998 1.86387C14.3902 1.22281 13.728 0.8125 13 0.8125C12.272 0.8125 11.6098 1.22281 11.3003 1.86387L8.35982 7.969L1.59413 8.97487C0.899443 9.07806 0.321756 9.55338 0.0975057 10.2026C-0.125932 10.8534 0.0430682 11.57 0.533818 12.0591L5.49169 17.0089L4.34201 23.8753C4.22501 24.5667 4.52482 25.2606 5.11226 25.6652C5.43482 25.8871 5.81426 26 6.19369 26C6.50569 26 6.81851 25.9236 7.10207 25.7717L13 22.5964L18.8988 25.7717C19.1823 25.9236 19.4951 26 19.8063 26C20.1858 26 20.5652 25.8871 20.8886 25.6652C21.476 25.2606 21.7742 24.5667 21.658 23.8753L20.5075 17.0089L25.467 12.0591C25.9569 11.5692 26.1251 10.8526 25.9033 10.2026ZM19.1653 15.7324C18.7493 16.1468 18.5608 16.731 18.6558 17.3038L19.8063 24.1702L13.9076 20.9966C13.6248 20.8439 13.3128 20.7683 12.9992 20.7683C12.6872 20.7683 12.3744 20.8447 12.0916 20.9966L6.19288 24.1702L7.34338 17.3038C7.43925 16.731 7.25075 16.1468 6.83475 15.7324L1.87688 10.7827L8.64175 9.77519C9.26007 9.68338 9.79225 9.29662 10.0579 8.74494L13 2.64144L15.9413 8.74575C16.2078 9.29744 16.7391 9.68337 17.3566 9.776L24.1231 10.7835L19.1653 15.7324Z"
            fill="#BDBDBD" />
    </g>
    <defs>
        <clipPath id="clip0_16_354">
            <rect width="26" height="26" fill="white" />
        </clipPath>
    </defs>
</svg>
    