<svg width="32" height="32" viewBox="0 0 32 32" fill="none" xmlns="http://www.w3.org/2000/svg">
    <g clip-path="url(#clip0_16_499)">
        <path
            d="M32 8C32 6.594 31.043 5.392 29.674 5.076L16.661 2.073C16.443 2.024 16.221 2 16 2C15.779 2 15.557 2.024 15.325 2.076L2.326 5.076C0.956 5.392 0 6.594 0 8C0 9.406 0.957 10.608 2.325 10.924L5 11.541V20C5 22.654 8.038 25 16 25C23.962 25 27 22.654 27 20V11.541L29.674 10.924C31.043 10.608 32 9.406 32 8ZM25 20C25 21.105 22 23 16 23C10 23 7 21.105 7 20V12.003L15.338 13.927C15.556 13.976 15.779 14 16 14C16.221 14 16.444 13.976 16.674 13.924L25 12.003V20ZM16.225 11.975C16.15 11.991 16.075 12 16 12C15.925 12 15.849 11.991 15.775 11.975L2.775 8.975C2.321 8.87 2 8.466 2 8C2 7.534 2.321 7.13 2.775 7.025L15.775 4.025C15.849 4.009 15.924 4 16 4C16.076 4 16.151 4.009 16.225 4.025L29.225 7.025C29.678 7.13 30 7.534 30 8C30 8.466 29.678 8.87 29.225 8.975L16.225 11.975ZM29 13C29 12.447 29.447 12 30 12C30.552 12 31 12.447 31 13V22C31 22.553 30.552 23 30 23C29.447 23 29 22.553 29 22V13ZM30 24C31.104 24 32 26.896 32 28C32 29.104 31.104 30 30 30C28.895 30 28 29.104 28 28C28 26.896 28.895 24 30 24Z"
            fill="#BDBDBD" />
    </g>
    <defs>
        <clipPath id="clip0_16_499">
            <rect width="32" height="32" fill="white" />
        </clipPath>
    </defs>
</svg>
    