<svg width="26" height="26" viewBox="0 0 26 26" fill="none" xmlns="http://www.w3.org/2000/svg">
    <path
        d="M13 0C8.06325 0 4.0625 4.00075 4.0625 8.9375C4.0625 12.2127 7.059 15.6837 8.15019 18.7322C9.77763 23.2781 9.59725 26 13 26C16.4531 26 16.2216 23.2911 17.8498 18.7509C18.9443 15.6959 21.9375 12.1875 21.9375 8.9375C21.9375 4.00075 17.9351 0 13 0ZM15.106 22.0805L11.0776 22.5834C10.9338 22.1674 10.7794 21.6807 10.5918 21.0454C10.5893 21.0373 10.5861 21.0283 10.5844 21.0202L15.6122 20.3921C15.5407 20.6318 15.4643 20.8837 15.3977 21.1096C15.2913 21.4744 15.1962 21.7913 15.106 22.0805ZM10.348 20.2378C10.2001 19.7486 10.0336 19.2335 9.84831 18.6875H16.1582C16.0582 18.9792 15.9583 19.2717 15.8722 19.5479L10.348 20.2378ZM13 24.375C12.1769 24.375 11.7983 24.2799 11.3774 23.3594L14.8208 22.9279C14.3219 24.2718 13.9587 24.375 13 24.375ZM16.796 17.0625H9.21294C8.80831 16.185 8.32244 15.3075 7.84306 14.4487C6.78275 12.5515 5.6875 10.5893 5.6875 8.9375C5.6875 4.90506 8.96756 1.625 13 1.625C17.0324 1.625 20.3125 4.90506 20.3125 8.9375C20.3125 10.5771 19.2156 12.5499 18.1545 14.4584C17.68 15.314 17.1974 16.1899 16.796 17.0625ZM13 4.0625C13.2234 4.0625 13.4062 4.2445 13.4062 4.46875C13.4062 4.693 13.2242 4.875 13 4.875C10.7599 4.875 8.9375 6.69744 8.9375 8.9375C8.9375 9.16175 8.7555 9.34375 8.53125 9.34375C8.307 9.34375 8.125 9.16175 8.125 8.9375C8.125 6.24894 10.3114 4.0625 13 4.0625Z"
        fill="#BDBDBD" />
</svg>
    